<?xml version="1.0" encoding="UTF-8" standalone="no"?>
<svg
   xmlns:dc="http://purl.org/dc/elements/1.1/"
   xmlns:cc="http://creativecommons.org/ns#"
   xmlns:rdf="http://www.w3.org/1999/02/22-rdf-syntax-ns#"
   xmlns:svg="http://www.w3.org/2000/svg"
   xmlns="http://www.w3.org/2000/svg"
   xmlns:xlink="http://www.w3.org/1999/xlink"
   xmlns:sodipodi="http://sodipodi.sourceforge.net/DTD/sodipodi-0.dtd"
   xmlns:inkscape="http://www.inkscape.org/namespaces/inkscape"
   viewBox="0 0 1580 1550"
   version="1.1"
   id="svg2"
   inkscape:version="0.91 r13725"
   sodipodi:docname="2018_election_of_the_Head_of_Yakutia_map.svg"
   width="745"
   height="700">
  <metadata
     id="metadata8792">
    <rdf:RDF>
      <cc:Work
         rdf:about="">
        <dc:format>image/svg+xml</dc:format>
        <dc:type
           rdf:resource="http://purl.org/dc/dcmitype/StillImage" />
        <dc:title></dc:title>
      </cc:Work>
    </rdf:RDF>
  </metadata>
  <defs
     id="defs8790">
    <pattern
       y="0"
       x="0"
       height="6"
       width="6"
       patternUnits="userSpaceOnUse"
       id="EMFhbasepattern" />
    <pattern
       y="0"
       x="0"
       height="6"
       width="6"
       patternUnits="userSpaceOnUse"
       id="EMFhbasepattern-4" />
    <pattern
       y="0"
       x="0"
       height="6"
       width="6"
       patternUnits="userSpaceOnUse"
       id="EMFhbasepattern-5" />
    <linearGradient
       inkscape:collect="always"
       xlink:href="#linearGradient4383"
       id="linearGradient4169"
       gradientUnits="userSpaceOnUse"
       gradientTransform="matrix(1.3332644,0,0,1.3332644,107.81185,1106.8639)"
       x1="820"
       y1="669.14398"
       x2="1320"
       y2="669.14398" />
    <linearGradient
       id="linearGradient4383"
       inkscape:collect="always">
      <stop
         id="stop4385"
         offset="0"
         style="stop-color:#a5c3ff;stop-opacity:1" />
      <stop
         style="stop-color:#558dff;stop-opacity:1"
         offset="0.25"
         id="stop4395" />
      <stop
         style="stop-color:#0557ff;stop-opacity:1"
         offset="0.5"
         id="stop4391" />
      <stop
         id="stop4393"
         offset="0.75"
         style="stop-color:#003bb4;stop-opacity:1" />
      <stop
         id="stop4387"
         offset="1"
         style="stop-color:#002164;stop-opacity:1" />
    </linearGradient>
  </defs>
  <sodipodi:namedview
     pagecolor="#ffffff"
     bordercolor="#666666"
     borderopacity="1"
     objecttolerance="10"
     gridtolerance="10"
     guidetolerance="10"
     inkscape:pageopacity="0"
     inkscape:pageshadow="2"
     inkscape:window-width="1366"
     inkscape:window-height="705"
     id="namedview8788"
     showgrid="false"
     inkscape:zoom="0.21459759"
     inkscape:cx="1416.7968"
     inkscape:cy="738.17373"
     inkscape:window-x="-8"
     inkscape:window-y="-8"
     inkscape:window-maximized="1"
     inkscape:current-layer="respublika_sakha_(jakutija)"
     inkscape:object-nodes="true"
     inkscape:snap-bbox="true"
     inkscape:object-paths="true"
     fit-margin-top="0"
     fit-margin-left="0"
     fit-margin-right="0"
     fit-margin-bottom="0"
     inkscape:snap-global="false"
     showguides="false"
     inkscape:bbox-paths="false"
     inkscape:bbox-nodes="false"
     inkscape:snap-bbox-edge-midpoints="false"
     inkscape:snap-bbox-midpoints="false"
     inkscape:snap-text-baseline="true"
     inkscape:snap-page="true">
    <inkscape:grid
       type="xygrid"
       id="grid7894" />
  </sodipodi:namedview>
  <g
     id="respublika_sakha_(jakutija)"
     transform="matrix(0.45129643,0.19987886,-0.19987854,0.45129569,-1997.1514,-1657.6811)"
     style="fill:#0038ab;fill-opacity:1;stroke:#ffffff;stroke-width:1.62081647;stroke-linecap:round;stroke-linejoin:round;stroke-miterlimit:4;stroke-dasharray:none">
    <path
       d="m 7465.3956,1812.7616 -1,-5 3,-6 5,-2 -2,-3 -1,-2 2,-5 -1,-3 3,-3 -1,-4 3,-4 0,-7 -6,-11 13,-17 0,-2 -4,-1 -12,-10 -4,-5 -9,-8 -2,-6 -3,-1 -1,-1 -2,-1 -2,-3 -3,-1 1,-3 -3,-2 -1,-3 10,-17 5,1 3,-4 3,1 9,-8 4,-3 4,1 2,-4 7,0 3,-1 -3,-4 1,-3 -6,-4 -3,-7 -3,-3 -5,-3 -10,-1 -3,-5 -5,-3 2,-3 6,0 0,-7 4,-4 5,0 4,-5 5,-1 1,-2 -1,-4 2,-1 4,0 3,3 3,2 2,-3 5,1 5,-3 6,-9 2,1 2,-2 7,-3 2,3 6,-5 5,2 0,5 4,7 8,-1 5,1 13,-10 3,-8 4,2 3,-3 3,3 5,-2 7,1 7,-6 -6,-7 3,-4 4,-3 12,0 4,-5 11,-5 7,1 6,-4 5,3 1,3 7,-4 2,2 14,2 13,-6 4,-4 7,-2 16,-23 4,-10 4,-2 9,-2 6,1 3,-3 -3,-3 0,-6 7,-2 1,-2 -3,-3 1,-3 10,-12 2,0 3,-8 13,-9 3,3 3,9 2,1 0,11 2,3 7,-3 3,4 2,4 -3,7 -9,10 3,3 1,3 2,1 1,3 1,3 -6,5 0,3 7,1 -2,4 14,2 3,3 4,-1 9,3 0,7 3,2 1,2 -6,16 -8,5 -4,6 -6,2 -3,5 -8,2 -4,-1 -13,8 -2,4 1,4 3,1 1,3 3,2 2,3 8,3 12,1 0,8 3,3 2,16 7,5 7,4 8,-5 5,5 16,-9 2,3 9,4 2,4 2,5 5,4 3,6 5,4 1,10 -8,9 0,6 -5,8 -6,5 2,4 7,0 8,7 4,17 -3,13 -7,6 -5,8 -8,-1 -5,-8 -7,5 -2,0 -3,-5 -7,1 -5,4 9,9 7,1 2,5 3,5 5,3 3,4 -15,12 -14,5 -8,-5 -6,-1 -5,3 -10,9 -9,1 -1,9 -6,13 -4,17 0,4 5,14 0,8 -2,11 4,11 -2,5 2,4 -3,4 -4,2 -1,4 -3,-3 -12,-2 -6,2 -1,-2 -11,-5 -5,4 -5,0 -5,-5 -3,-1 -18,3 -2,-5 -9,2 -1,-3 -8,-6 -7,2 -6,-4 -4,2 -7,-9 -18,0 -14,-5 -6,2 -8,-3 -35,22 -11,-3 -9,0 -13,-6 -5,-4 -1,-4 -7,-12 -17,-3 -3,-4 -3,-9 -7,-7 -4,-6 0,-12 -1,-5 -6,-1 -2,-3 -4,-2 -2,-3 -4,-2 -5,-3"
       id="abyjskij_ulus"
       inkscape:connector-curvature="0"
       style="fill:#003bb4;fill-opacity:1;stroke:#ffffff;stroke-width:1.62081647;stroke-linecap:round;stroke-linejoin:round;stroke-miterlimit:4;stroke-dasharray:none" />
    <path
       d="m 6976.3956,3550.7616 0,-4 -2,-4 -1,-5 8,-3 2,-1 -1,-4 -7,-10 -8,-20 2,-16 5,-3 -1,-9 6,-5 -2,-4 -5,-1 -4,-3 -16,-5 -4,-5 -1,-5 1,-4 -3,-5 2,-4 -1,-14 6,-2 1,-2 -1,-2 6,-14 13,-10 0,-6 5,-4 0,-5 2,-3 -3,-9 5,1 1,-4 6,-2 -1,-2 8,-6 2,1 2,5 1,0 5,-2 2,-3 3,-1 1,1 1,-3 -1,-5 7,-2 0,-3 -6,-12 2,-4 3,0 1,-3 1,-1 -4,-7 0,-2 8,-4 0,-3 -4,-5 1,-3 3,-3 13,2 12,-3 1,-10 3,1 8,-7 4,0 0,-5 8,-6 -1,-4 4,-3 -1,-5 -2,-3 0,-6 10,-8 13,-6 4,4 5,2 7,-3 0,-10 4,-7 -1,-6 6,-2 6,3 6,-12 -2,-7 3,-7 6,-1 7,10 4,2 7,-7 2,-8 7,-4 -1,-18 2,-3 2,-6 7,-7 0,-10 2,0 8,5 5,-1 12,-18 -3,-9 1,-11 -2,-5 -11,-15 24,-9 10,1 4,3 17,-4 5,3 9,24 1,9 4,11 12,11 3,6 5,5 4,9 4,6 2,8 6,7 1,4 4,8 14,6 3,3 0,2 6,6 16,8 2,3 7,-2 0,-3 12,-8 3,-6 8,2 3,4 3,0 5,-2 0,-5 3,-4 5,1 3,-2 3,3 7,3 11,-5 1,-3 -1,-3 3,-9 5,-1 3,-4 -2,-10 2,-4 -1,-4 1,-6 5,-5 -2,-6 9,-9 5,-1 5,3 5,-2 5,7 6,1 1,-3 8,-2 1,4 0,2 3,13 3,6 0,5 9,16 1,5 -1,3 3,6 5,7 6,3 1,4 4,4 4,10 6,4 2,5 6,1 3,-2 -1,-4 6,-2 8,5 4,-1 4,4 2,7 8,0 1,2 0,4 2,9 1,3 5,5 11,-6 -1,-10 3,-3 2,6 5,8 -1,4 3,1 1,4 3,2 0,8 4,1 -5,18 1,1 3,0 2,3 -8,3 -2,-2 -9,7 5,4 2,4 -1,2 2,2 5,2 0,4 3,3 0,4 2,7 -7,-1 -2,13 2,1 -1,5 9,1 4,2 1,3 -3,6 -6,2 -1,-4 -9,-2 1,-2 -7,-3 -3,4 -5,-4 -5,-1 -12,6 0,4 1,1 3,-1 5,7 9,1 1,4 -3,3 1,2 10,3 2,3 7,-1 2,4 -3,4 1,1 10,0 2,4 6,1 9,5 1,3 3,3 -4,5 0,7 -7,2 -3,8 -3,1 6,4 -4,11 -1,8 3,8 3,2 1,5 -5,2 -1,3 1,3 -1,1 -2,-1 -8,4 -7,-6 -1,11 -6,3 3,3 5,2 2,5 3,-1 -1,-4 5,-1 2,0 1,3 7,0 -4,7 -11,6 -4,8 -11,7 -5,21 -5,6 -4,9 -4,3 -7,1 -9,-5 -1,-3 -7,-3 -1,4 2,2 0,3 -3,5 -1,-3 -4,-5 -2,-4 -8,-5 -24,3 -14,6 -8,11 -8,3 -1,4 -12,9 -4,-3 -8,3 -3,-4 -17,2 -4,9 2,5 -5,4 -3,5 -6,-1 -5,2 -5,-3 -10,-1 -6,3 -1,7 -11,-7 -4,1 -3,2 -7,15 -4,-1 -7,-5 -12,-2 -6,-4 -8,-10 -4,-9 0,-4 -3,-3 -6,-1 -34,5 -5,-2 -3,-9 -8,7 -20,3 -6,-4 -5,-1 -4,-4 -10,1 -5,-2 -4,-2 -2,-8 -2,-1 -15,-1 -2,2 2,2 -1,4 -4,0 -3,4 4,11 -4,6 1,4 -4,1 -2,-3 -8,-4 -18,14 -6,0 -5,-2 -6,-7 -6,1 -2,-3 -4,0 -5,-8 -5,-1 -4,-5 1,-4 4,-2 -2,-6 2,-4 0,-3 -3,-4 -5,-2 -3,-6 4,-6 4,-2 1,-3 -2,-9 -2,-4 1,-6 -1,-3 -3,-1 1,-1 -1,-8 -6,-3 11,-9 1,-12 4,-6 -2,-3 -3,-1 -12,3 -12,8 1,2 -1,1 -5,2 3,6 2,2 0,4 2,3 -3,3 -9,-5 -1,1 1,5 4,-2 2,4 -6,9 -7,-4 3,5 -4,3 4,2 2,4 -11,-1 1,4 -6,1 1,4 -4,2 -10,0 -4,-2 -2,1 -5,-2 -11,2 -8,6 -1,6 1,2 -3,6 -13,2 -2,5 -5,3 -1,-4 -6,-9"
       id="aldanskij_ulus"
       inkscape:connector-curvature="0"
       style="fill:#6396ff;fill-opacity:1;stroke:#ffffff;stroke-width:1.62081647;stroke-linecap:round;stroke-linejoin:round;stroke-miterlimit:4;stroke-dasharray:none" />
    <path
       id="allaikhovskij_ulus"
       d="m 7407.3956,1220.7616 1,-2 0,1 -1,1 m -51,30 1,-1 0,-5 0,5 -1,1 m -2,-1 1,1 0,1 -1,-2 m 79,-21 -2,0 3,-2 0,1 -1,1 m 19,14 0,-1 1,-1 0,1 -1,1 m 0,1 0,1 0,1 0,-2 m 138,-75 -1,1 3,-2 -2,1 m 28,-9 1,0 -4,6 2,-4 1,-2 m -202,142 2,-3 -1,2 -1,1 m -77,296 2,-5 0,-6 8,-75 -7,-2 -5,-7 4,-6 0,-6 -1,-4 3,-5 0,-3 3,-9 3,-1 -2,-4 3,-8 -1,-10 6,-11 0,-2 -2,-3 -7,-6 -8,-5 -2,-8 -2,-3 1,-5 -2,-1 -1,-3 -1,-6 -3,-3 -2,-8 -4,-1 0,-2 2,-2 -2,-4 1,-3 -2,-2 1,-4 5,-2 4,-15 -1,-8 -1,-21 1,-5 -3,-2 4,-6 -8,-3 1,-8 9,-5 -2,-6 -3,-2 3,-6 4,0 7,-7 -2,-2 6,0 -1,-4 3,1 0,-5 -7,0 -2,-4 5,-1 1,-2 1,2 1,1 0,3 7,3 10,-2 5,-8 0,-6 15,-16 52,-41 17,-9 -1,19 1,18 -1,3 1,0 -7,23 -1,12 1,3 -2,-1 -3,-8 -8,-14 2,1 0,3 4,-3 1,-8 -1,-1 3,-3 -1,-4 2,1 -1,-4 -7,0 0,-2 -3,-1 -1,5 -4,1 1,5 3,-2 1,2 -4,3 4,6 -3,-1 -1,-2 -2,-13 -2,-4 -2,10 -1,3 -3,-4 1,-2 -4,0 3,-2 -11,-2 -3,4 2,3 1,-2 0,2 1,0 2,-1 0,-3 3,0 1,5 2,1 -3,3 2,11 1,1 2,3 2,2 6,-4 2,2 7,9 -2,6 -2,-1 -5,3 -2,7 -5,6 -4,-3 -7,-1 -1,3 -3,-2 -3,2 3,5 12,2 1,6 -3,2 0,6 -3,0 -3,3 2,2 4,0 -1,2 2,3 6,-2 0,4 2,0 1,-2 -2,-3 6,2 4,-7 2,3 5,-4 1,-8 3,-5 4,1 3,-2 6,-15 1,-10 1,-9 -1,-5 1,-5 1,-18 -2,-20 3,-24 18,-15 15,-7 17,-12 48,-11 13,0 22,4 13,5 6,5 3,4 2,5 -9,19 -5,-3 -3,1 -4,-4 -6,-4 -4,1 0,9 -2,2 1,9 -3,5 2,11 -4,-1 -2,2 1,2 10,-3 0,-5 6,0 2,-5 6,2 7,-2 14,-15 5,2 6,-3 5,4 1,-4 3,1 -4,7 11,-7 -1,4 -4,1 4,2 -6,5 -1,4 2,0 1,-5 18,-11 1,0 -1,1 7,-2 0,4 2,2 0,4 3,3 -1,3 2,0 1,-2 -2,-5 2,-6 -2,2 -1,-3 -1,0 4,1 10,-4 -3,1 0,6 -5,10 2,6 2,1 1,-1 -3,-6 8,-12 7,-6 8,-2 6,0 -7,5 10,-3 13,0 8,5 1,2 9,3 -1,2 1,0 2,-1 6,3 2,1 1,2 4,0 5,4 2,0 -2,5 -14,9 8,0 10,-6 15,2 13,-3 2,4 5,5 1,4 -2,2 2,2 1,3 6,2 0,9 1,5 -2,6 2,4 5,4 4,-1 3,12 6,2 6,-1 3,1 2,2 -3,11 3,2 1,3 1,0 1,4 2,1 -6,2 1,2 -6,2 1,2 13,-1 2,7 2,0 8,6 2,1 6,44 -15,4 -8,-2 -8,1 -14,-2 0,10 -4,1 -13,15 -5,10 -1,11 -9,9 -4,9 -7,5 -4,18 -7,0 -2,3 1,4 -12,7 1,4 -2,3 -8,2 -3,4 -3,8 -2,0 -10,12 -1,3 3,3 -1,2 -7,2 0,6 3,3 -3,3 -6,-1 -9,2 -4,2 -4,10 -16,23 -24,12 -14,-2 -2,-2 -7,4 -1,-3 -5,-3 -3,3 -10,0 -11,5 -4,5 -12,0 -7,7 6,7 -2,3 -8,4 -4,-2 -5,2 -3,-3 -3,3 -4,-2 -3,8 -13,10 -5,-1 -8,1 -4,-7 0,-5 -5,-2 -6,5 -2,-3 -7,3 -2,2 -2,-1 -6,9 -5,3 -5,-1 -2,3 -3,-2 -3,-3 -4,0 -2,1 1,4 -1,2 -5,1 -4,5 -5,0 -4,4 0,7 -6,0 -2,3 -8,1 -3,-3 -8,0 -1,-4 2,-3 -1,-4 -3,0 5,-11 -13,-6 -12,7 -3,0 -9,9 -9,-2 -6,0 -7,-6 -4,-1 -11,8 -5,-4 -2,0 -6,-5 -1,-1 -6,-4 m 18,-372 -4,-21 0,-8 38,-12 56,-8 -49,31 -8,2 -3,5 -7,-6 -4,1 -1,-2 -2,0 -2,7 -5,-2 -4,2 -5,8 0,3 m 79,71 -1,0 1,0 m 211,-124 -1,-1 1,0 0,1 m 7,2 2,0 -1,-4 5,0 -3,4 -3,0 m 25,-2 1,-1 0,1 -1,0 m 7,-4 0,-1 2,0 -1,1 -1,0 m 10,-3 1,0 -1,0 m -8,7 2,-2 1,0 0,1 -3,1 m 50,3 0,-1 1,1 -1,0 m 30,18 -1,-1 1,-1 1,2 -1,0 m 8,2 1,0 3,1 -3,0 -1,-1"
       inkscape:connector-curvature="0"
       style="fill:#0f5eff;fill-opacity:1;stroke:#ffffff;stroke-width:1.62081647;stroke-linecap:round;stroke-linejoin:round;stroke-miterlimit:4;stroke-dasharray:none" />
    <path
       d="m 7257.3956,3100.7616 -1,-9 -9,-24 8,5 5,-5 4,0 3,-3 -1,-5 4,-4 7,0 6,5 3,-5 10,-1 5,9 5,6 5,4 2,0 8,-7 -1,-4 0,-5 1,-4 2,-2 1,7 2,2 3,0 9,-8 2,-3 3,1 6,-3 10,-11 3,8 5,-1 10,-8 -1,-5 -3,-3 -1,-9 -9,-11 -2,-4 -7,-3 3,-5 -7,-5 0,-5 4,-8 -3,-11 2,-9 -1,-8 18,-10 -1,-2 0,-7 3,-6 0,-4 -3,-6 10,-2 4,-6 6,-2 11,5 15,1 1,4 5,2 5,-1 15,-8 17,-13 -4,-2 -1,-6 2,-4 -1,-4 2,-2 5,-1 7,5 5,7 -1,5 7,5 6,12 3,3 0,5 8,20 5,9 9,13 7,19 3,2 -1,6 -4,8 -3,1 -4,12 -5,3 -15,-1 -3,5 2,7 -4,7 4,20 4,9 -3,6 -4,1 -4,9 7,5 1,5 2,3 1,10 0,3 2,3 -2,6 -2,1 2,5 0,10 -3,-1 -2,-4 -2,-1 -4,4 -5,0 -1,-4 -3,0 -5,2 -1,3 -6,-1 -5,-7 -5,2 -5,-3 -5,1 -9,9 2,6 -5,5 -1,6 1,4 -2,4 2,10 -3,4 -5,1 -3,9 1,3 -1,3 -11,5 -7,-3 -3,-3 -3,2 -5,-1 -3,4 0,5 -5,2 -3,0 -3,-4 -8,-2 -3,6 -12,8 0,3 -7,2 -2,-3 -16,-8 -6,-6 0,-2 -3,-3 -14,-6 -4,-8 -1,-4 -6,-7 -2,-8 -4,-6 -4,-9 -5,-5 -3,-6 -12,-11 -4,-11"
       id="amginskij_ulus"
       inkscape:connector-curvature="0"
       style="fill:#00297e;fill-opacity:1;stroke:#ffffff;stroke-width:1.62081647;stroke-linecap:round;stroke-linejoin:round;stroke-miterlimit:4;stroke-dasharray:none" />
    <path
       id="anabarskij_ulus"
       d="m 5882.3956,1540.7616 -28,-3 -13,-9 -15,-1 -7,-6 -1,-4 2,-3 4,-4 5,0 5,3 4,-1 -1,-3 4,-2 -2,-2 2,-6 -3,-3 -2,-7 -1,-6 1,-1 31,0 18,-3 10,2 5,4 3,5 1,6 -2,-2 -1,4 2,1 0,-1 0,1 -4,8 -3,13 -8,4 -3,14 -3,2 m -7,-79 -3,2 -1,1 2,-2 0,-4 -2,-1 2,-1 2,2 0,2 0,1 m 141,16 1,4 3,1 -3,0 -2,-3 0,-3 3,-7 4,1 2,2 2,3 0,2 -1,1 0,-3 -1,-3 -5,-2 -3,7 m -214,50 -1,-1 -1,-4 5,-1 1,1 1,5 -5,0 m 189,58 0,-1 1,-1 0,1 -1,1 m -49,46 -1,-1 7,3 -3,0 -3,-2 m -164,24 0,-1 5,2 12,-8 6,0 -1,-4 2,-2 6,-8 -1,-2 -1,0 0,-2 3,-1 0,-2 6,0 7,-6 -1,-2 2,1 3,-3 -4,0 -1,-3 -2,0 1,-3 -3,1 -1,-2 -4,0 -1,-2 -8,-2 2,-6 -1,0 4,-8 2,-2 7,0 2,-2 -1,0 0,-2 4,-1 -1,-1 19,11 30,2 22,-7 7,-9 -1,-5 -8,-13 -4,-9 0,-3 10,10 9,5 6,12 8,9 5,9 1,4 0,3 -1,2 0,-2 -3,2 -2,7 0,7 -2,5 6,3 1,3 4,3 9,2 2,3 0,6 -2,8 3,4 -1,3 1,2 3,2 2,-2 -2,-2 4,0 -4,-5 -2,-4 4,-5 2,-9 3,-1 1,-4 -14,-8 -4,-4 -1,-5 -2,-1 18,-9 11,-10 16,-1 16,-6 3,-2 1,-3 -2,-1 4,-5 7,-4 0,-1 -1,-1 4,-2 14,-4 19,-1 12,2 15,-6 37,5 28,-8 29,-5 18,5 -2,3 -6,0 2,3 3,1 -4,4 -12,-3 -4,6 -1,7 1,3 2,1 0,2 -11,1 -2,3 1,9 -4,2 2,3 -1,2 -6,2 0,1 -6,6 -6,2 -16,15 -2,5 1,2 18,-6 14,4 3,-6 6,4 0,-3 4,-2 19,11 9,10 9,0 -1,4 5,5 22,1 3,-5 5,3 6,-4 -2,-4 11,-8 13,9 5,2 2,3 -2,4 8,11 3,0 3,3 -1,4 6,0 4,3 -1,3 2,6 8,13 -7,-3 -2,-3 -3,0 -5,14 -3,1 -4,-2 -3,3 -10,0 -7,-2 -4,5 -1,5 -6,5 -5,1 -7,8 -3,0 -1,-2 -7,2 0,3 -3,2 -4,-1 -10,5 -16,3 -1,-5 -20,-5 -2,8 0,3 -5,1 1,2 -7,3 -2,6 1,2 -3,2 -22,3 -3,-3 -1,-3 -4,-1 -3,8 -2,-1 -4,4 1,3 -3,1 0,3 -6,5 6,2 -5,13 -4,3 3,4 -4,10 2,4 15,-3 4,2 2,4 -2,1 0,3 -10,5 -2,-1 -4,3 -9,-1 -12,4 -4,4 -1,3 1,4 -3,1 -2,5 1,3 -4,4 0,2 -7,3 -1,6 -3,2 2,3 0,3 -5,7 -3,0 0,3 2,1 1,3 -7,1 0,4 0,2 6,-1 2,2 0,2 6,3 7,-2 7,6 9,0 9,6 0,5 -4,7 0,3 3,1 -2,6 -5,7 -6,3 0,4 -7,7 -6,-2 -6,6 -5,-1 -1,10 1,6 -3,1 -5,-2 -4,2 -2,7 -4,3 -11,-4 -14,4 -19,-4 2,-4 2,0 3,-3 -3,-4 3,-6 -3,-6 -1,-4 8,0 0,-3 8,-2 5,1 0,-3 1,-3 -4,-2 2,-9 0,-6 -4,-1 -2,-3 4,-8 0,-10 -2,-3 1,-10 -5,-1 -11,3 -3,-7 8,-11 0,-2 -2,-2 -3,-3 0,-2 -9,0 -3,-3 -1,-5 -2,-3 -11,-8 1,-4 4,-5 -3,0 -2,-2 0,-4 -4,-2 0,-6 7,-7 -1,-8 -8,-4 -2,-4 0,-3 -2,-5 -3,-2 -14,7 -14,2 -9,3 -8,-2 -6,6 -8,2 -4,4 -2,-2 -4,0 -2,-4 1,-2 -1,-1 -5,1 -1,-1 4,-5 -2,-4 -1,-2 -3,-3 -12,4 -2,-2 0,-2 -13,-2 1,-1 -3,-1 3,-4 -4,-3 6,-2 6,-7 0,-3 -3,-1 0,-2 -4,-3 -14,0 -1,-1 2,-1 -3,-1 2,-5 -8,-1 -3,-3 1,-2 -2,-2 0,-3 -3,-4 1,-2 -2,-3 4,-2 -2,-1 0,-3 -5,-2 2,-1 -3,-3 1,-2 8,-4 -2,0 5,-4 -8,-1 0,2 -2,-3 -1,2 2,1 -3,-1 2,-3 -3,-2 3,-2 -1,-1 1,-1 -1,-1 5,-1 1,-5 -6,-6 3,-2 0,-3 -1,0 1,-3 -22,5 0,-2 -2,0 1,-3 -1,-2 10,-7 1,-4 -5,-4 1,-2 -2,-1 1,-2 -4,1 -1,-2 -3,0 1,2 -1,0 -1,-2 -5,0 -1,-3 -3,1 -3,-1 2,-2 -2,-1 m 163,-13 1,0 0,1 -1,-1"
       inkscape:connector-curvature="0"
       style="fill:#0039ae;fill-opacity:1;stroke:#ffffff;stroke-width:1.62081647;stroke-linecap:round;stroke-linejoin:round;stroke-miterlimit:4;stroke-dasharray:none" />
    <path
       inkscape:connector-curvature="0"
       d="m 7428.6595,396.2719 -1,1 -1,1 -3,0 -1,0 -1,0 0,-1 0,-1 1,-4 2,-1 3,-1 1,0 1,2 0,1 0,2 -1,1 m -225,200 -2,2 0,1 0,1 0,2 -1,3 1,2 1,1 1,0 -1,1 1,1 1,0 1,0 0,4 -1,1 0,-1 -1,0 -1,0 -1,0 -2,0 -1,1 -2,1 -1,1 0,1 -1,0 -2,2 -2,2 -1,0 0,1 -1,0 -1,2 -1,0 0,-1 -1,0 0,1 -2,3 -1,0 -1,1 1,0 -2,1 -1,0 0,-1 0,-1 1,-1 0,-2 0,-1 1,-2 1,-1 1,2 0,-1 2,-1 0,-1 -1,0 0,-2 1,-3 0,-3 1,-1 2,-2 2,-3 3,-1 1,-1 2,-2 0,-1 1,0 3,-2 1,-1 1,-2 1,-1 1,-1 0,-1 -1,3 m 293,-210 -1,1 -1,0 0,-2 0,-1 1,0 1,0 1,0 -1,1 0,1 m -130,192 -1,2 1,0 0,-1 1,-1 1,1 1,1 0,1 2,2 1,0 0,1 1,1 1,1 0,2 -2,2 -1,0 -3,0 -1,1 -1,0 -1,-1 -2,1 -1,-1 -1,0 -1,-1 0,-2 0,-1 0,-1 0,-1 0,-1 2,-2 1,-1 2,-2 1,0 m 27,62 -1,0 0,-1 1,1 m -36.6377,193.99989 -21,13 -24,8 -9,-1 -4,-3 -11,-1 -7,-3 -25,7 -21,-3 -20,3 -14,-4 4,-4 1,-5 -3,-3 0,-1 -6,-4 -2,-4 1,-9 -2,-4 0,-2 -5,-7 -1,-6 1,-2 10,1 6,2 1,4 -2,4 3,4 5,2 4,4 9,0 8,-3 6,-10 -2,-1 -2,4 -4,1 -1,2 2,-4 2,-4 1,-4 -2,0 0,-1 6,-4 3,-5 17,-3 13,-11 10,-1 1,1 1,2 0,6 5,4 1,4 2,0 0,2 5,0 7,-4 16,-22 20,-5 13,-7 6,0 8,5 7,-1 7,-13 7,-2 -1,7 2,7 -1,9 1,2 3,1 1,4 3,8 1,1 -17,19 -9,15 2,1 -5,3 -1,3 -1,-1 -2,1 3,2 -4,0 -6,6 m -576,212.00001 0,-13 -4,-10 -6,-8 -2,-10 -1,-9.00001 -1,-3 -3,-1 0,-5 1,0 0,2 4,3 4,5 8,8.00001 7,3 11,1 -2,8 0,15 2,3 4,0 -3,12 -13,7 -2,-1 -2,-6 -2,-1 m 177,-124.00001 0,-1 0,1 m 77,-44 0,-1 1,1 -1,0 m -74,37 1,-2 1,2 0,1 -2,-1 m 17,-9 1,1 1,0 -1,0 -1,-1 m 0,4 0,-1 5,-2 0,5 -5,-2 m -11,5 1,-1 0,1 -1,0 m -55,-69 0,-1 1,-1 -1,1 2,0 -2,1 m 206,94 5,-4 9,4 0,2 -5,10 -15,11 -2,-1 -3,1 1,3 -2,2 -3,-1 -4,1 1,5 -1,5 4,-5 -7,12 -6,1 -27,-6 -3,1 1,-1 6,0 -1,-5 5,-4 6,1 3,3 3,-3 -3,-1 -6,-1 -3,-5 -4,5 -9,3 -7,13 7,-4 -1,1 -30,26.00001 -21,24 -5,4 -5,4 -3,0 -1,0 7,-2 3,-4 -5,-3 -2,-4 -3,-2 -3,1 -3,-2 -1,1 -7,-2 -4,1 -1,9 2,6 6,2 1,-2 0,-2 -1,-1 2,1 -2,6 2,13 0,5 -3,10 -6,5 -23,-1 -22,5 -12,-7 -12,-10 -11,-3 -16,-2 -8,-4 -20,-13 -2,-5 -5,-6 9,-9 -1,-3 -4,-3 3,-5 0,-3 -5,-4 -14,-4 4,-8.00001 1,-5 -3,-4 -3,-1 -2,-3 2,-7 10,-3 2,-7 -12,-8 -2,-4 0,-4 3,-10 17,-10 -1,-10 -2,0 0,5 -2,6 3,-19 17,-21 11,-6 -3,5 4,4 9,5 10,-1 11,5 18,-3 0,7 -1,-3 -2,3 0,2 2,3 3,-1 5,3 9,1 5,-4 7,-1 3,2 -2,3 2,1 -1,2 2,8 3,0 0,3 4,1 4,-2 -2,-2 2,-1 0,-3 2,0 3,-4 1,1 -1,1 2,1 -6,2 -1,3 7,0 2,-3 5,0 9,-9 -2,-3 -5,-1 -3,-4 -4,-1 -2,1 2,-6 -6,-5 -2,-6 -7,-7 -2,-9 -1,-1 11,-10 8,-3 7,1 1,-2 -8,-2 -3,-3 -1,-2 -6,-2 -3,-4 -4,2 0,-3 1,-1 9,2 11,-2 16,6 13,2 9,5 9,1 22,-4 12,-15 15,-5 9,0 16,3 13,-4 10,3 19,-2 8,3 5,3 -5,2 -4,4 -6,15 0,5 1,3 8,8 6,1 -4,6 2,9 2,4 -5,20 -9,7 -22,8 -7,8 -12,-3 -4,2 -2,-3 -6,2 -1,-2 -3,-2 -3,-4 -5,2 -1,-3 -3,-2 -3,-4 -11,-1 0,-3 -1,-2 -1,-1 -1,-8 -3,-1 3,-3 -1,-7 6,-14 0,-6 -4,-7 -3,-1 -2,-2 -5,0 -5,4 -2,-1 -9,9 -1,-3 -2,1 0,2 2,0 -2,2 5,-1 -2,7 -7,4 6,0 -3,7 1,1 2,1 0,5 -1,2 2,2 1,2 5,3 3,5 1,3 9,7 2,3 9,3 8,6 9,4 3,4 6,1 12,-5 19,0 m -147,-43 1,0 0,1 -1,-1 m -136,65 0,-1 2,2 -1,1 -1,-2 m 120,-96 0,-1 0,1 m 16,-11 0,-1 1,0 -1,1 m -7,1 1,-1 -1,1 m 5,-3 -1,-1 1,1 m -4,-1 2,0 -1,1 -1,-1 m -4,3 0,1 0,-1 m -12,5 0,-2 5,-3 1,4 -4,2 -2,-1 m 12,-6 0,-2 0,2 m 0,0 -1,0 -1,-1 1,1 1,0 m 136,362.00011 -8,5 -5,-4 -2,-1 2,-6 18,-10 6,-12 2,-9 -1,-12 -5,-23 2,-13 2,-2 7,1 11,-14 15,-13 11,2 10,-3 8,1 13,5 22,3 15,5 10,7 -1,4 4,4 1,5 5,8 7,7 5,2 -5,2 -7,10 -25,6 -9,7 -8,0 -19,7 -23,5 -26,0 -11,3 -12,9 -3,7 -6,7 m -13,-80 -2,2 -3,0 -7,0 -4,-2 -4,-4 -6,-3 -5,-6 -7,-15 1,-5 2,-4 12,-10.0001 13,-4 4,1 4,2 3,5.0001 1,8 1,1 3,4 3,8 -1,4 -10,11 -4,9 6,-2 m -188,92 0,-1 -5,-3 -15,-4 -5,-6 -6,-3 -3,-4 -1,2 1,2 1,0 -3,1 -3,-1 -3,-7 -3,-4 7,-1 27,9 7,6 9,3 0,2 3,2 2,3 -3,7 -7,-3 m -441.6262,225.4897 0,1 0,-1 m -88,33 -1,-1 3,-2 2,0 -4,3 m 10,-36 2,-4 1,0 -1,2 1,3 -1,1 -2,-2 m -8,16 0,-1 1,0 -1,1 m 58,-17 0,-2 1,1 0,2 -1,-1 m -56,6 -1,0 1,0 m 28,-8 1,0 -1,1 0,-1 m -2,3 0,-1 0,1 m -25,18 0,-1 2,-1 0,2 -2,0 m 110,-32 2,0 -2,0 m -110,36 -2,1 -3,5 1,-4 4,-4 0,2 m 82,-23 1,0 0,1 -1,-1 m 27,-6 0,-1 1,1 -1,0 m -11,6 -1,-4 2,-1 -1,2 0,3 m -300,118 3,0 -1,1 -2,-1 m 194,-76 4,-2 1,0 -1,2 -4,0 m 90,-35 2,-1 1,4 -1,0 -2,-3 m 15,1 0,-2 2,0 -1,1 -1,1 m -101,43 1,-1 1,0 -1,1 -1,0 m -211,71 0,-1 4,-6 5,1 -5,0 -4,6 m 213,-63 1,-1 1,0 -1,1 -1,0 m -199,67 -3,-2 0,-3 5,1 0,4 -2,0 m -63,59 2,-5 16,-15 6,-2 6,-6 0,-1 6,-2 1,-2 -2,-3 4,-2 -1,-9 2,-3 11,-1 0,-2 2,0 -1,5 0,6 1,2 1,5 6,5 39,6 4,-2 -5,-3 5,-3 1,1 -1,4 2,1 -1,2 7,1 -1,-1 2,-3 -6,-1 0,-2 8,-2 9,3 -2,4 1,3 0,1 -5,-2 0,-3 -2,-3 -2,2 5,8 15,5 1,1 0,2 4,0 10,-4 20,2 6,0 -1,-3 -24,-2 -8,4 -10,-3 -5,-4 5,-3 12,0 1,-2 1,1 12,-1 8,-2 23,1 13,-10 14,-5 1,2 25,3 10,0 3,-4 13,6 1,-1 -10,-5 -2,-4 -3,0 9,-4 -13,-2 3,-3 3,0 0,-1 -5,0 1,-5 3,-3 0,-1 -4,-1 2,-1 10,2 0,2 2,1 1,-3 1,2 8,-1 0,1 -1,1 -1,2 3,1 -3,1 8,1 2,4 4,-1 2,-4 1,-7 3,-1 -2,-3 -2,-2 -2,-5 2,-4 -1,-2 1,0 0,-5 2,0 -1,-3 2,3 4,-1 0,-1 -4,-3 -5,1 -1,-1 5,-7 5,0 0,-2 -7,2 0,-3 -2,-2 -4,1 3,-2 0,-3 -2,2 -1,-3 -3,2 -2,-2 3,-1 -5,-2 0,-2 -2,-2 2,-5 -9,0 1,-2 3,1 1,-2 -4,-3 1,-4 -2,-2 -2,2 3,-6 -3,-1 -2,-3 3,-2 0,-3 -2,-1 0,-1 5,0 0,-1 -4,-2 -1,-1 2,1 1,-2 -4,-5 6,-1 2,-4 -2,-3 5,-1 1,2 -2,2 1,2 -1,1 6,3 0,-5 -2,-3 0,-2 4,0 -2,-6 5,1 1,-3 -2,-3 -1,0 -6,6 1,1 0,2 -1,-1 -1,-2 -3,2 -5,-2 6,1 -1,-3 0,-2 7,-3 0,-2 2,-1 0,-2 -2,0 2,-2 3,0 3,-3 -1,3 2,4 -3,5 2,3 1,-1 2,-3 1,0 -1,2 1,2 -1,1 1,2 -2,0 -2,4 2,1 5,-6 -2,-1 4,-7 -3,0 -2,-2 0,-1 4,-1 1,0 -1,-3 2,0 0,-3 6,-3 0,3 -2,2 4,-2 0,2 8,0 0,4 1,0 3,-5 0,3 2,2 -2,1 2,1 3,-2 1,-4 2,0 1,0 -2,4 4,-1 1,2 -1,2 3,1 0,-2 -1,-4 1,-1 3,5 0,4 4,-2 -1,-2 -2,-1 2,-2 -1,-5 1,0 1,4 3,4 -2,1 4,-1 3,3 -1,4 2,8 1,0 0,-5 -1,0 2,-2 -1,1 1,2 5,2 -2,-3 -1,-5 2,-1 0,2 1,1 2,-4 0,2 3,3 0,1 9,-1 1,2 -1,2 1,2 5,-3 -1,-3 -2,1 -2,-5 -2,1 -1,-2 3,-4 1,-7 -1,-3 2,-1 1,2 -2,6 0,3 2,5 -1,2 1,2 6,-1 -1,3 -7,5 3,1 6,-4 1,-3 0,-3 -1,-1 0,-1 7,3 -1,-1 3,-1 -1,-2 4,0 -1,-4 5,-4 4,4 3,0 -1,1 1,1 2,5 2,0 0,2 2,0 0,3 3,2 1,0 -2,-2 1,-3 -2,-1 6,-6 0,3 1,1 1,5 2,0 0,-7 6,-5 2,2 -4,2 0,3 3,3 2,-1 -2,-4 3,-1 -1,-9 -6,-1 6,-5 10,-3 10,4 4,-5 -6,-1 6,-4 15,-1 2,0 0,3 4,-1 14,4 -5,3 2,2 15,-1 1,3 1,1 0,3 -1,2 1,2 -5,2 6,0 0,2 1,0 5,-4 12,-2 3,2 5,0 0,1 2,1 -2,6 -3,1 4,2 3,4 4,-7 4,-1 15,7 5,-1 0,2 -2,4 7,3 2,2 -11,6 5,-1 0,2 1,0 -12,-1 2,-2 0,-2 2,-4 4,-2 -3,-1 -4,1 -1,5 -5,3 3,2 -10,1 -5,9 3,0 4,-7 10,-1 6,2 0,2 8,0 1,1 6,4 -2,0 -4,6 7,-1 -1,1 -5,4 -1,2 1,1 -8,6 9,-2 1,1 -6,2 10,-1 4,1 5,4 -8,-1 -1,2 5,0 2,4 -9,6 -2,-3 -5,1 0,1 5,3 -7,3 3,0 0,3 3,-3 9,-2 -7,3 0,3 3,-2 -4,3 -1,3 -10,0 -6,9 12,-8 -3,4 3,0 0,3 -5,1 1,3 18,-13 1,0 -4,2 0,3 4,-2 -1,1 11,1 1,4 -7,-1 -1,2 9,1 3,-3 -1,2 1,1 0,1 3,2 2,4 -4,8 3,-1 1,4 -3,-1 0,2 2,2 8,-1 -5,3 -4,14 9,-8 2,-1 1,2 -4,9 -9,9 1,1 -5,0 -4,4 -1,0 -1,-3 -2,2 -1,-1 0,-2 -3,-1 -1,1 3,3 -10,5 -5,-1 1,-2 -1,-1 -2,1 -2,0 2,-2 -5,2 0,-2 -1,0 1,-1 -1,-2 1,-4 -3,2 -2,-1 2,-2 -3,-1 1,-2 -8,-1 0,-2 -8,0 -15,-8 -10,3 -4,-1 -4,-3 4,-3 -3,-2 -4,3 -5,-1 0,-1 -2,1 1,2 -2,-1 -15,7 4,0 -17,6 -2,-1 -2,-3 0,-5 10,-10 1,0 -2,3 1,0 -1,2 12,-4 -8,0 5,-7 0,-3 -1,0 -22,19 1,6 4,6 2,2 0,1 5,2 1,-2 -3,-2 5,-4 16,-5 11,1 1,-1 -5,-2 4,-3 8,4 -3,1 1,1 7,-2 7,2 8,7 -5,2 1,2 7,-2 5,4 4,-1 4,5 10,1 2,5 2,1 6,0 3,2 10,-5 15,1 -11,3 6,1 4,3 -2,5 -4,1 1,4 -8,-1 -4,-4 -1,1 -1,-5 -3,-1 1,6 3,3 4,5 6,1 4,8 2,0 1,4 5,2 11,-3 5,-6 2,-7 -1,-3 -9,-8 -2,-4 -6,-8 1,0 5,6 14,11 1,4 2,1 15,9 -10,-1 1,-1 -2,-2 -1,2 1,2 -19,14 0,6 3,2 2,5 3,1 3,-4 4,-1 2,-4 2,1 3,4 3,1 2,4 0,4 5,2 4,6 7,12 2,2 17,5 2,3 3,6 4,3 2,4 17,-4 6,8 3,2 0,3 1,2 6,2 2,1 4,0 3,-5 1,1 3,6 2,1 7,-3 2,-5 0,-3 -4,-6 1,-3 2,2 -2,1 1,2 3,1 1,3 1,2 1,2 3,2 3,3 2,4 -1,1 1,2 9,4 11,-7 5,-14 1,-8 0,-2 -1,-2 2,-13 -3,-15 6,-2 1,3 5,-1 0,1 13,11 1,4 -3,10 3,9 3,6 3,1 10,13 0,4 -2,6 1,4 4,5 2,5 4,6 2,2 8,-1 38,-16 3,0 5,4 -1,4 4,6 4,2 0,3 4,3 -4,11 3,4 8,1 1,2 -11,9 1,2 11,1 4,5 1,5 22,7 1,5 -4,2 -1,5 -8,4 -1,14 -3,0 -1,9 -4,5 2,3 1,9 2,4 -1,9 4,2 -1,6 -3,4 2,5 -1,3 2,2 -1,4 -8,3 -1,6 -4,10 -4,6 -14,4 -18,12 -8,19 -4,1 -23,0 -6,4 -11,-4 -6,11 -4,3 -4,-6 -1,2 0,5 -1,6 1,7 -2,2 3,2 0,3 -5,13 -3,4 -10,2 -8,8 -24,-1 -4,2 -2,-3 -9,-1 -5,4 -8,16 -12,-1 -5,4 -12,2 -10,6 -12,3 0,3 -5,1 -9,7 -2,-1 -4,7 -9,6 -3,-4 -2,4 -6,1 -3,-4 -4,2 -2,-4 -2,4 -7,-2 4,5 -6,-3 -6,7 -2,-3 -8,-4 -1,2 -4,0 -1,-2 -4,1 -2,-3 0,-2 -3,4 -1,-1 0,-3 -7,-1 0,-3 -2,2 -7,-1 0,-3 -3,-1 -6,2 -2,-4 -12,-6 -1,-1 -10,-2 -1,1 2,3 -3,2 3,3 2,6 -4,1 1,2 4,-1 -1,3 1,3 -4,2 1,4 -4,-1 -1,4 -4,-3 -1,2 1,3 -3,0 1,3 -8,7 4,3 -4,3 4,2 -12,2 -3,-6 -1,6 -2,-1 0,-2 -1,-3 -2,2 2,3 -2,2 -8,1 -4,-6 -6,0 -14,-11 -17,1 -5,-7 -1,1 2,5 0,1 -4,0 -1,2 -9,-2 -7,1 -3,3 -2,-1 -8,5 -6,0 -3,1 -2,-3 -3,-2 -11,-2 -8,-10 -5,-13 -10,-7 -4,-5 -6,-2 -10,2 -2,2 1,5 -1,2 2,3 -3,3 -3,-1 -4,6 -13,3 0,3 -6,5 0,3 -8,3 -9,11 -7,5 -2,-3 -11,-3 -4,2 -3,-7 1,-4 3,-1 2,-5 -1,-4 5,-2 5,-7 -2,-1 -1,-9 -3,-5 7,-5 -1,-4 2,-3 0,-6 2,-3 -2,-2 -10,-2 -3,-5 2,-3 -3,-4 1,-2 -2,-3 4,-4 -2,-3 -2,-2 0,-3 4,-2 -4,-4 -1,-5 -3,-3 -3,2 -2,-4 -4,-1 0,-4 -2,-7 3,-10 10,-5 -2,-8 4,-3 -2,-7 1,-1 -2,-8 -5,-7 14,-1 10,-3 3,-5 11,-2 10,-9 3,-6 -1,-7 6,-6 -2,-7 2,-11 -8,-6 1,-3 -2,-6 9,-11 4,0 2,-5 4,-1 -1,-2 -9,-7 1,-5 -7,-13 2,-5 6,-8 5,0 0,-2 -16,-10 0,-5 -6,3 -7,-5 -5,-10 -4,-1 -3,2 -9,-5 2,-8 -2,-7 -7,-2 -8,-9 -9,1 -13,-10 -5,-12 -3,3 -10,-10 -2,-4 3,-8 -4,-4 1,-6 -3,-6 0,-10 -5,-1 -17,11 -8,-13 -2,-6 1,-3 -4,-3 -6,0 1,-4 -3,-3 -3,0 -8,-11 2,-4 -2,-3 -5,-2 -13,-9 -11,8 2,4 -6,4 -5,-3 -3,5 -22,-1 -5,-5 1,-4 -9,0 -9,-10 -19,-11 -4,2 0,3 -6,-4 -3,6 -14,-4 -18,6 -1,-2 m 314,-212 2,0 2,1 -2,2 -1,-1 -1,-2 m -8,-1 7,2 -5,3 0,4 -1,1 1,2 2,-1 1,2 -2,1 1,-1 -2,0 0,3 -9,3 -6,-4 -4,2 1,-3 7,-3 0,-2 -3,-1 0,-1 12,-7 m 5,7 2,-2 1,0 -2,2 1,2 -2,1 0,-3 m -72,26 0,-2 1,0 0,3 5,0 -3,1 -2,-1 -1,-1 m -2,-15 0,-3 3,-1 -2,2 0,3 -1,-1 m 2,3 2,0 2,0 -2,1 -2,-1 m 0,6 1,-2 2,0 -3,3 0,-1 m 2,127 -2,1 -2,-3 0,-3 3,0 4,2 6,1 -2,4 2,2 -4,1 -5,-5 m -3,5 0,-1 1,0 0,1 -1,0 m -7,-2 2,0 2,2 0,1 -4,-3 m -73,25 1,-1 0,1 -1,0 m -3,-2 2,0 -8,1 1,-1 -2,-2 -2,2 2,2 -1,4 -9,2 2,-1 -10,-2 -3,2 -1,-1 0,-2 -2,1 0,-3 -8,-2 1,-4 -1,-1 -6,2 0,-3 5,-3 22,-3 12,5 2,3 3,1 -2,3 3,0 m 99,-36 -1,2 -2,-2 2,-1 1,1 m -10,5 2,-3 2,0 -1,3 -3,0 m 20,-4 1,2 -1,0 -8,-3 4,-2 4,3 m -195,11 -1,5 -4,2 -2,-2 4,-6 3,1 m 440,-132 2,1 -9,5 0,-4 7,-2 m -375,140 -3,0 -3,0 2,0 4,0 m 2,1 -1,-1 3,0 0,1 -2,0 m 4,0 -1,0 -1,0 4,0 -2,0 m 6,1 -1,0 -2,0 1,0 2,0 m 385,-126 1,0 -3,-1 3,-1 -1,2 m 30,7 0,-1 3,1 -2,1 -1,-1 m -286,108 2,0 0,1 -2,-1 m -27,11 0,-1 1,1 -1,0 m 319,-111 1,0 -1,0 m -317,112 1,0 -1,1 0,-1 m 319,-105 1,0 -1,0 m -3,2 0,1 0,-1 m 10,23 -6,1 -3,-1 5,-7 0,1 4,1 0,3 2,2 -2,0 m -7,19 0,-1 1,1 -1,0 m 2,0 1,-1 1,0 -1,1 -1,0 m 14,-1 0,-2 2,-1 0,4 -2,-1 m -4,10 -2,0 -4,-1 2,-4 6,1 2,3 -4,1 m -17,8 2,-1 1,-1 -1,2 -2,0 m 24,-9 1,0 -1,0 m 3,1 1,-1 1,1 -1,0 -1,0 m 0,2 0,1 0,-1 m 3,13 1,-1 -1,-5 5,3 -5,3 m 10,14 1,1 -1,-1 m -59,27 0,1 0,-1 m 8,11 1,1 1,1 -2,-2 m 4,4 0,-1 1,2 -1,0 0,-1 m 43,-6 0,-2 3,-1 0,4 -3,-1 m -2,4 1,-1 -1,1 m 9,46 1,0 2,1 -1,1 -2,-2 m 51,-6 1,3 -7,-6 3,1 3,2"
       style="fill:#0045d4;fill-opacity:1;stroke:#ffffff;stroke-width:1.62081647;stroke-linecap:round;stroke-linejoin:round;stroke-miterlimit:4;stroke-dasharray:none"
       id="bulunskij_ulus" />
    <path
       d="m 7323.3956,2842.7616 2,-3 -3,-6 2,-6 -2,-1 0,-6 -3,-4 4,-1 -1,-3 12,0 8,-6 12,-2 3,-4 0,-15 1,-4 11,-7 1,-3 -1,-4 0,-2 6,-6 12,-3 4,4 1,8 6,7 0,3 4,7 4,1 2,3 4,4 8,3 1,3 -1,5 2,3 11,7 5,9 5,2 1,3 4,3 6,-1 0,-7 8,-7 5,3 12,2 9,-3 1,-4 11,2 5,-6 3,2 8,-2 3,6 8,1 12,9 9,12 18,14 1,3 -7,6 -2,6 -3,1 -1,6 -4,-1 -13,8 -12,4 -19,17 -6,2 -5,7 -7,1 -3,-3 -6,-12 -7,-5 1,-5 -5,-7 -7,-5 -5,1 -2,2 1,4 -2,4 1,6 4,2 -17,13 -20,9 -5,-2 -1,-4 -15,-1 -11,-5 -12,-10 -2,2 -8,-11 -6,-2 -5,-8 -8,-4 1,-9 -3,-1 1,-2 -3,-1 -2,-3 9,-13 -11,0 -7,-4 -6,5 -4,-1"
       id="churapchinskij_ulus"
       inkscape:connector-curvature="0"
       style="fill:#002d88;fill-opacity:1;stroke:#ffffff;stroke-width:1.62081647;stroke-linecap:round;stroke-linejoin:round;stroke-miterlimit:4;stroke-dasharray:none" />
    <path
       d="m 6761.3956,2139.7616 2,-5 11,-2 1,-1 -2,-2 3,-6 5,2 4,-2 -2,-6 -2,-2 1,-5 -3,-11 -19,-3 -4,-6 -12,-6 5,-2 4,-7 2,1 9,-7 5,-1 0,-3 12,-3 10,-6 12,-2 5,-4 12,1 8,-16 5,-4 9,1 2,3 4,-2 24,1 8,-8 10,-2 3,-4 5,-13 0,-3 -3,-2 2,-2 -1,-7 1,-6 0,-5 1,-2 4,6 4,-3 6,-11 11,4 6,-4 23,0 4,-1 8,-19 18,-12 14,-4 4,-6 4,-10 1,-6 8,-3 1,-4 2,2 -1,8 -3,8 -4,2 1,3 2,5 7,4 8,-1 4,2 12,12 8,6 11,3 5,5 3,6 11,2 12,5 7,-1 -8,15 8,-1 3,2 1,3 -4,10 -7,8 3,6 -2,4 -5,5 2,5 -2,6 1,24 -3,6 0,9 -4,2 -2,5 2,6 -2,1 4,7 -3,3 -4,-4 -7,-1 -3,4 -1,5 -7,10 3,14 1,4 -11,0 -5,-4 -3,-1 -1,5 5,15 -5,9 -1,11 4,2 0,3 -3,3 1,3 3,1 2,6 -1,3 3,5 -2,6 -5,4 0,4 -15,0 -7,9 -2,0 -1,-3 -5,11 -1,9 7,9 0,3 -4,6 -1,6 -8,1 4,9 4,15 3,9 6,7 2,1 -1,5 -10,7 -10,-1 -2,-4 -4,0 -4,-4 -3,3 4,6 2,6 -19,0 -14,3 -8,4 -8,-5 -1,-3 -2,-1 -5,-1 -3,3 -1,6 4,5 1,8 -6,8 -11,4 -4,-8 -14,1 -3,-1 -2,-3 -13,3 -4,-5 -4,0 -5,5 -8,-11 -6,-6 -2,-4 0,-6 6,-7 1,-4 -2,-3 -5,-2 -1,-3 3,-4 -8,-5 0,-3 7,-9 -2,-8 -7,-12 1,-4 -4,-5 -3,-6 -4,-2 0,-7 -1,-2 2,-6 -2,-4 -5,0 -5,-4 -19,4 -7,-1 -7,-3 -7,-12 -5,-2 0,-4 1,-5 -1,-7 -4,-10 -3,-4 2,-3 -3,-3 1,-5 -6,-4 -8,-9 -2,-4 1,-3 -3,-3"
       id="ehveno-bytantajskij_nacional'nyj_ulus"
       inkscape:connector-curvature="0"
       style="fill:#0035a2;fill-opacity:1;stroke:#ffffff;stroke-width:1.62081647;stroke-linecap:round;stroke-linejoin:round;stroke-miterlimit:4;stroke-dasharray:none" />
    <path
       d="m 6770.3956,3005.7616 9,-5 4,-28 8,-4 9,3 3,-2 2,-5 9,-6 2,-10 14,-7 7,1 10,-7 0,-5 4,-1 26,-2 7,4 10,-1 8,3 12,-9 1,-8 8,-10 -4,-4 7,-6 6,-2 14,0 11,-1 4,-9 -4,-3 0,-5 -5,-10 0,-6 1,-4 -1,-6 6,-13 1,1 7,-6 13,0 10,-3 2,-3 40,-22 0,-4 7,-2 3,-6 0,-8 3,-3 -1,-4 2,-6 -1,-3 22,-4 7,6 7,10 15,28 20,23 26,5 4,8 -3,6 -6,0 -6,8 -13,7 -1,5 -2,6 19,12 9,3 16,-4 11,12 15,28 -6,2 -9,8 -3,0 -5,6 -7,0 -7,4 -15,0 0,10 -2,5 7,9 -2,3 0,3 -3,2 -2,5 1,3 -2,3 0,2 2,1 -7,4 -11,-1 -2,5 -4,2 3,5 -4,2 3,3 0,2 3,5 -3,5 -13,8 -8,0 -10,4 -13,1 -12,12 -3,1 -5,-5 -7,3 -1,4 -5,2 0,5 -4,0 -2,5 2,10 -1,3 -12,3 -5,13 -10,13 -16,0 -2,3 -10,2 -2,8 -6,3 -5,-5 -4,-6 -12,-8 -13,-3 -5,2 -12,-5 -3,-4 -4,-8 0,-6 -4,-3 -11,-17 -7,-1 -35,20 -8,1 0,-4 -1,-3 -6,1 -2,-4 2,-8 4,-4 -8,-12 -14,-1 -4,-4 -2,-12 -2,-2 -16,1 -3,-1 -3,-5 -8,-5 -2,-4 -6,-8"
       id="gornyj_ulus"
       inkscape:connector-curvature="0"
       style="fill:#002b84;fill-opacity:1;stroke:#ffffff;stroke-width:1.62081647;stroke-linecap:round;stroke-linejoin:round;stroke-miterlimit:4;stroke-dasharray:none" />
    <path
       style="fill:#0758ff;fill-opacity:1;fill-rule:evenodd;stroke:#ffffff;stroke-width:0.80000001;stroke-linecap:round;stroke-linejoin:round;stroke-miterlimit:4;stroke-dasharray:none"
       d="m 3625.502,1402.2715 -1.9747,1.4805 -1.9746,3.9492 -6.9101,1.9726 -0.9864,6.418 -1.9746,1.9727 -5.9238,1.9746 -5.9219,-2.961 -9.3789,-0.4941 -5.4297,3.4551 -2.9609,4.9355 5.4297,5.9238 7.4043,13.8204 3.9473,-2.4688 2.4687,0 -0.4941,6.9102 4.9355,0.4941 11.3535,-4.4414 7.4024,2.4668 4.4433,0.4941 0.9864,-2.4687 -1.4805,-6.416 1.4805,-3.9493 -3.4551,-15.3007 0.4941,-2.4668 -0.4941,-1.4805 0.9883,-0.9883 -1.9746,-3.9473 z"
       transform="matrix(2.0260189,0,0,2.0260223,-98.939422,0.72952201)"
       id="jakutsk"
       inkscape:connector-curvature="0"
       sodipodi:nodetypes="ccccccccccccccccccccccccccccc" />
    <path
       d="m 6964.3956,3123.7616 6,-3 2,-8 10,-2 2,-3 16,0 10,-13 5,-13 12,-3 1,-3 -2,-10 2,-5 4,0 0,-5 5,-2 1,-4 7,-3 5,5 3,-1 12,-12 13,-1 10,-4 8,0 13,-8 3,-5 -3,-5 0,-2 -3,-3 4,-2 -3,-5 4,-2 2,-5 11,1 7,-4 -2,-1 0,-2 2,-3 -1,-3 2,-5 3,-2 0,-3 2,-3 -7,-9 2,-5 0,-10 15,0 7,-4 7,0 5,-6 3,0 9,-8 7,-2 7,-5 5,0 -1,14 10,1 23,-9 15,5 9,1 5,31 4,12 21,-4 5,3 5,2 6,-3 20,9 5,10 2,12 -4,7 18,34 -2,5 -9,8 -3,0 -2,-2 -1,-7 -2,2 -1,9 1,4 -8,7 -2,0 -5,-4 -5,-6 -5,-9 -10,1 -3,5 -6,-5 -7,0 -4,4 1,5 -3,3 -4,0 -5,5 -13,-8 -17,4 -4,-3 -10,-1 -31,10 -15,0 -3,1 -3,11 -5,0 -10,6 -26,7 -6,5 -8,14 -12,8 -3,1 -11,-3 -5,4 6,10 2,7 -4,5 -4,1 -7,-1 -4,3 0,25 -9,6 -2,4 -4,-1 -2,-4 -6,-5 -36,-8 2,-12 -5,-5 -9,-5 -6,-7 -9,-5 -7,-10 -5,-3"
       id="khangalasskij_ulus"
       inkscape:connector-curvature="0"
       style="fill:#0042ca;fill-opacity:1;stroke:#ffffff;stroke-width:1.62081647;stroke-linecap:round;stroke-linejoin:round;stroke-miterlimit:4;stroke-dasharray:none" />
    <path
       d="m 6797.3956,2792.7616 0,-4 5,-4 -1,-12 0,-10 3,-7 7,-4 5,-7 9,-3 9,-24 19,-26 10,-29 -1,-5 -21,-9 -3,-4 -5,-9 -6,-9 -16,-9 6,-9 1,-9 2,-4 0,-12 -1,-6 2,-13 7,-8 -2,-4 4,-3 8,1 16,-7 0,-5 9,-13 6,-5 14,-1 5,-4 -1,-7 2,-3 0,-8 8,-4 5,1 8,-9 -2,-6 0,-8 -3,-7 2,-5 -1,-3 1,-3 2,0 5,3 5,0 0,-2 -4,-21 10,-6 -3,-7 -6,1 -7,-5 -4,0 -1,7 -3,0 -4,-1 -4,-8 -7,4 -6,-6 0,-5 -6,-15 -1,-9 3,-7 2,-9 -2,-5 1,-4 5,-8 -3,-1 -3,-5 5,-5 4,0 4,5 10,-3 3,0 2,3 3,1 14,-1 4,8 11,-4 6,-8 -1,-8 -4,-5 1,-6 3,-3 5,1 2,1 1,3 8,5 8,-4 14,-3 19,0 -2,-6 -4,-6 3,-3 4,4 4,0 2,4 10,1 10,-7 1,-5 7,2 3,8 -1,3 1,3 13,25 5,-5 11,-2 13,13 10,3 13,5 18,-2 1,7 11,7 3,3 4,-3 4,4 4,8 17,-9 0,7 3,12 -2,19 4,3 1,3 4,0 4,4 2,3 6,3 2,0 4,-4 4,4 9,3 3,4 6,4 13,18 3,3 7,3 4,9 7,6 3,6 -1,6 2,7 11,2 9,-9 0,3 8,3 10,8 5,9 10,5 -4,13 2,9 -5,11 0,13 -6,3 2,5 5,1 3,2 2,4 -1,4 4,16 -7,21 -18,12 -22,10 -10,8 -14,3 -5,4 -36,6 -3,8 2,5 3,5 1,3 -4,5 -5,1 -11,-5 -5,10 0,5 -7,5 -3,10 -13,-6 -3,4 -29,0 -2,16 3,8 -4,19 -1,16 -3,15 -19,7 -2,-7 -5,1 -11,-17 -7,-6 -22,4 1,3 -2,6 1,4 -3,3 0,8 -3,6 -7,2 0,4 -1,1 -39,21 -2,3 -10,3 -13,0 -7,6 -42,10 -10,-2 -5,2 -65,-5 -3,-4 -2,-5 1,-3 -3,-3 -4,0 -3,-3 -14,0 0,-5 -4,-4 -1,-5 -2,-4 2,-1 -4,-6 1,-2 -4,-6"
       id="kobjajskij_ulus"
       inkscape:connector-curvature="0"
       style="fill:#002d88;fill-opacity:1;stroke:#ffffff;stroke-width:1.62081647;stroke-linecap:round;stroke-linejoin:round;stroke-miterlimit:4;stroke-dasharray:none" />
    <path
       d="m 6041.3956,3607.7616 3,-1 3,-6 -7,-5 4,-7 0,-5 3,-2 0,-3 8,-13 -1,-2 -4,-1 1,-3 -2,-1 -1,-7 5,-10 -1,-1 6,-6 -4,-7 3,-2 0,-7 4,-7 -1,-2 -3,0 0,-3 -1,0 0,-6 -1,-1 -1,-4 1,-2 -1,-5 1,-1 -1,-4 4,-2 1,-3 0,-5 -2,-2 0,-2 5,-4 -3,-2 0,-1 5,-3 1,-3 0,-3 -4,-2 2,-7 5,-7 1,-3 -1,-2 5,-3 -1,-3 0,-3 -3,-1 0,-2 0,-1 -3,-1 7,-3 5,2 3,-4 0,-3 -3,-6 1,-2 -3,-5 0,-5 2,-3 2,-9 3,-3 -1,-2 3,-2 1,-5 5,1 6,-4 4,1 1,3 5,-1 3,-4 11,-5 3,0 9,8 2,1 5,-4 4,4 2,0 6,-6 19,5 8,-6 4,-6 2,-2 16,1 6,2 6,-9 8,-8 2,-11 7,-8 1,-3 -1,-4 0,-2 11,-6 6,-7 2,-11 7,-6 5,-12 0,-16 11,-9 -1,-5 9,-4 9,1 8,8 15,-5 2,-8 2,-1 -2,-6 8,-5 7,-26 4,-5 4,6 1,8 3,4 9,2 6,8 -3,7 3,4 9,-1 7,-5 7,-17 14,-2 7,-3 12,1 5,-6 9,-3 2,1 4,5 2,2 7,-1 5,5 9,1 5,5 12,-1 1,3 8,6 1,4 4,1 4,5 19,1 2,4 -1,6 4,13 0,5 6,6 0,3 1,3 3,1 5,5 2,8 6,6 3,8 -4,6 0,3 2,3 5,4 1,9 -11,23 2,8 -1,6 -16,15 -1,6 1,8 0,3 -3,0 -2,-5 -10,1 0,-3 -1,-5 -3,-4 -5,0 -10,5 -2,0 -2,-3 -2,-1 -6,4 -2,-5 -7,-2 -5,-1 -5,4 -2,-6 -3,0 1,-2 -1,-1 -5,0 -2,2 -1,-3 -1,-1 -11,5 -9,7 -3,1 -5,-2 -5,5 1,2 0,2 -4,3 -2,5 2,5 2,1 -1,4 1,2 -2,3 1,3 -3,4 0,3 -6,9 -5,1 -2,-2 -7,3 -2,3 1,3 -5,4 0,7 -3,3 1,4 5,1 1,5 -14,15 -1,2 1,5 -4,3 1,7 -3,7 -6,-1 -4,5 1,2 -2,4 -6,2 1,1 -1,4 -3,4 -2,2 -4,-1 -7,7 3,4 0,2 1,4 -5,6 1,3 -2,1 -3,8 1,3 7,3 -4,6 3,4 -1,3 -2,-2 0,4 -6,6 1,2 0,2 -3,5 -6,-3 -5,6 -3,-2 -2,4 -4,1 -3,-1 -3,2 0,3 -4,0 -3,6 1,5 -1,1 -9,2 -1,-4 1,-4 -1,0 -5,8 7,8 0,4 1,2 -2,2 -1,7 -3,0 -3,-3 0,-1 -2,-7 1,-3 -2,-2 1,-3 -2,-3 1,-4 -3,-9 1,-1 -1,-5 1,-7 6,-6 2,0 0,-6 -1,-2 -4,2 -1,-2 -3,-1 -1,2 -4,-1 -5,6 -6,2 3,-5 -2,-4 -2,-1 2,-8 -5,-7 0,-6 -1,0 -5,4 0,5 -5,7 0,4 -7,10 2,3 -1,6 -4,-3 -3,2 -4,0 -8,12 -10,-3 -1,-4 -8,1 -6,3 -1,3 2,1 -3,1 -1,6 -2,0 -5,-1 -3,-5 -2,1 1,1 -1,3 -4,2 -3,-4 -6,0 -1,-2 -9,0 -5,6 1,4 -4,2 0,2 -2,1 5,6 -4,3 1,4 -2,7 -7,0 -4,4 -2,5 -8,4 -2,-2 -8,1 -3,-3 -10,7 -6,-6 -3,-8 -3,1 -2,5 -3,-6 1,-3 -1,-3 0,-3 -4,0 -1,-3 -4,0 1,-6 -4,-1 0,-3 -1,-3 1,-2 -14,1 -4,-2 2,-3 -3,-4"
       id="lenskij_ulus"
       inkscape:connector-curvature="0"
       style="fill:#4582ff;fill-opacity:1;stroke:#ffffff;stroke-width:1.62081647;stroke-linecap:round;stroke-linejoin:round;stroke-miterlimit:4;stroke-dasharray:none" />
    <path
       d="m 7262.3956,2977.7616 -4,-12 -5,-31 2,-5 -3,-13 3,-8 -7,-31 1,-5 -1,-3 2,-2 -4,-8 0,-18 19,-3 -1,-5 6,-6 27,-1 4,3 21,-3 2,1 -2,6 3,6 -2,3 4,1 6,-5 7,4 11,0 -9,13 2,3 3,1 -1,2 3,1 -1,9 8,4 5,8 6,2 8,11 2,-2 12,10 -6,2 -4,6 -10,2 3,6 0,4 -3,6 0,7 1,2 -18,10 -1,2 2,6 -2,9 3,11 -4,8 0,5 7,5 -3,5 7,3 2,4 9,11 1,9 3,3 1,5 -7,7 -8,2 -3,-8 -4,6 -9,7 -3,1 -3,-1 0,-2 -18,-34 4,-7 -2,-12 -5,-10 -6,-4 -14,-5 -6,3 -5,-2 -5,-3 -21,4"
       id="megino-kangalasskij_ulus"
       inkscape:connector-curvature="0"
       style="fill:#002e8c;fill-opacity:1;stroke:#ffffff;stroke-width:1.62081647;stroke-linecap:round;stroke-linejoin:round;stroke-miterlimit:4;stroke-dasharray:none" />
    <path
       d="m 5715.3956,2901.7616 2,-2 4,3 5,-2 -1,-3 -3,-3 1,-3 -1,-3 1,-5 0,-4 2,-2 2,2 4,-1 -2,-1 0,-2 -2,0 0,-3 -2,-4 1,-1 6,-2 1,1 -1,4 2,0 0,1 0,1 9,-1 -6,-4 -4,-8 0,-2 -6,-3 -2,-1 0,-4 4,-4 5,-1 2,-4 1,-6 7,-2 0,-4 5,-8 4,2 3,-2 -6,-3 -1,-10 4,-4 1,-6 3,0 1,-2 12,1 2,-7 -1,-1 0,-2 4,-4 1,-5 -16,-3 -1,-3 1,-4 -1,-2 -5,0 2,-2 -15,-5 1,-3 -2,-1 3,-2 -1,-2 1,-1 -2,-1 1,-1 -2,-2 1,-4 3,-2 -3,-3 1,-4 -1,-4 1,0 -2,-7 1,0 -1,-7 1,-3 -2,-2 -2,-5 -3,-1 1,-3 -3,-1 0,-1 -2,-1 1,-3 -3,-3 -7,2 -7,-6 1,-3 -1,-3 1,-2 -1,0 1,-1 -1,-3 1,-1 -2,-1 1,-2 -2,-4 1,-3 -1,-2 3,-8 4,-2 4,-5 -2,-3 10,1 14,7 6,-4 2,-5 5,-1 3,-7 7,6 9,2 12,-2 3,-5 16,-1 4,1 5,6 3,0 2,-3 -2,-13 14,-20 -7,-3 -2,-4 16,-4 11,-9 3,2 -2,-5 5,-3 7,7 0,3 -3,3 0,4 1,5 6,6 11,-1 8,10 -2,6 9,6 2,5 -1,17 3,13 2,3 8,-2 1,-6 10,-4 3,-6 4,-3 7,-1 6,-11 11,-5 0,-5 -3,-5 3,-6 10,0 4,-11 7,-5 15,-2 9,-9 10,2 8,-9 16,-3 9,-6 13,5 6,-2 3,-3 15,-1 4,5 7,0 3,6 10,4 1,6 4,-3 1,5 5,2 1,8 7,11 0,2 4,3 0,8 1,4 0,5 6,6 4,1 6,15 -4,5 -18,0 -4,4 -4,5 -1,11 -5,6 -5,11 -1,4 2,7 0,1 -7,2 1,4 -10,4 0,4 3,3 8,0 5,3 14,-5 1,3 -2,2 0,3 2,3 -1,3 4,2 1,9 -1,4 -1,1 -5,-3 -6,3 -1,3 0,4 3,2 3,7 -2,3 2,4 0,2 2,1 1,3 4,1 7,-4 3,-5 3,2 7,-1 1,2 0,3 1,3 3,1 2,3 6,-1 4,3 5,0 3,3 4,13 9,-4 8,1 15,-3 7,7 3,9 1,8 3,-1 2,2 -1,5 2,4 6,-2 1,5 7,7 -1,4 1,5 2,5 4,3 2,5 1,8 -1,4 3,7 0,2 -3,1 1,3 -2,2 -8,0 0,5 1,2 -3,5 -13,5 -8,-4 -1,11 6,7 11,5 3,15 8,13 -6,8 -1,7 7,1 -1,3 0,4 3,5 3,2 7,0 4,2 6,-1 5,9 4,3 3,9 10,10 -5,8 -11,5 -2,-2 -4,-9 -3,-1 -6,1 1,5 -1,2 -3,-2 -3,-5 -13,2 -5,15 -5,2 1,2 10,6 6,-2 1,-3 -1,-3 2,4 4,-2 2,3 2,-2 1,6 1,2 4,-2 3,1 -3,3 0,7 5,8 -3,1 5,5 1,-1 -1,-3 4,0 0,3 5,4 -4,2 4,3 0,2 -4,-1 1,2 -3,0 3,4 1,2 2,-1 2,4 5,0 3,4 4,-2 0,4 3,4 -3,2 0,2 6,-2 2,2 -3,4 2,3 4,1 1,2 0,3 5,3 2,4 5,1 6,7 3,1 4,-1 2,3 0,2 6,16 7,3 -1,4 2,9 -5,7 0,3 5,3 -4,5 -7,26 -8,5 2,6 -2,1 -2,8 -15,5 -5,-5 -7,-4 -5,0 -9,4 1,5 -11,9 0,16 -5,12 -7,6 -2,11 -6,7 -11,6 0,2 1,4 -1,3 -7,8 -2,11 -8,8 -6,9 -6,-2 -16,-1 -2,2 -4,6 -8,6 -19,-5 -6,6 -2,0 -4,-4 -5,4 -2,-1 -9,-8 -3,0 -11,5 -3,4 -5,1 -1,-3 -4,-1 -6,4 -5,-1 1,-3 -2,-2 3,-8 -2,-4 0,-4 -2,-3 -7,-2 -5,6 -6,1 -7,-6 -3,-8 -8,-4 -10,2 -6,-1 3,-6 -1,-2 0,-5 2,-5 -4,-3 2,-6 -1,-3 1,-2 -10,-13 -3,0 1,-6 -4,0 -2,-4 -3,-1 -1,-3 1,-5 -4,0 2,-1 -2,-3 2,-4 -3,-4 -1,-3 4,-3 2,-6 2,-1 0,-3 3,-3 -1,-2 3,0 0,-3 2,-2 0,-4 1,-2 -2,-1 5,-8 2,-1 0,-4 -7,-9 4,-8 -5,-2 1,-4 -4,-1 0,-5 1,-1 -1,-3 -15,3 -8,-2 -2,4 -4,1 -2,-6 -6,-2 -3,-4 0,-2 -3,-2 0,-3 -2,0 0,-3 8,-3 -1,-1 0,-7 5,-4 0,-2 -1,-1 1,-3 -2,-2 2,-4 0,-3 9,-6 0,-1 0,-1 -4,-4 0,-3 -4,-3 -3,1 0,-3 -4,-4 2,-7 -4,0 3,-1 -1,-2 0,-2 -3,0 2,-2 -1,-2 1,-3 -3,0 1,-5 -2,0 1,-3 -2,0 -2,-5 0,-3 2,-1 -2,-6 -3,0 0,-5 -1,0 -1,-2 2,-2 -2,-4 -6,2 -2,-1 0,-2 2,-1 -5,-5 0,-3 -6,-5 0,-2 -1,-1 1,-2 -1,-1 -7,-4 -12,2 -10,-5 -4,2 -3,-1 0,-1 -6,0 -11,5 -12,2 -2,-7 3,-3 3,1 4,-7 -2,-12 0,-3 -1,-2 1,-2 4,-2 2,2 6,2 7,-4 2,3 2,0 3,-4 0,-3 3,-1 0,-3 -5,-3 0,-2 -2,0 2,-3 -1,-2 1,-1 0,-2 -1,-1 1,-3 -2,-3 -8,-3 -2,-3 1,-2 -6,-4 2,-4 -1,-1 2,-3 -5,-2 0,-3 3,-4 -4,-1 0,-2 -2,-3 -5,-2 -1,2 1,3 -2,4 -11,-1 -6,5 -1,6 1,4 -5,1 -1,-3 -3,2 -4,-5 -9,-3 0,-3 -5,-3 -9,2 -2,4 -5,3 -7,-5 -1,-6 -9,0 -1,-1 0,-2 -9,-3 -3,-4 -6,3 -5,0 -2,-7 -3,-3 -2,-4 -4,-1 -2,3 3,6 -1,2 -12,3 -2,2 -4,0 -4,4 -2,1 -3,-1 -2,-3 3,-2 0,-4 -3,-1 -2,-4 -3,-2 -6,9 -2,-2 -6,3 -1,-3 2,-3 -1,-3 -2,-5 -2,1 -1,-3 2,-6 -5,-5"
       id="mirninskij_ulus"
       inkscape:connector-curvature="0"
       style="fill:#9bbdff;fill-opacity:1;stroke:#ffffff;stroke-width:1.62081647;stroke-linecap:round;stroke-linejoin:round;stroke-miterlimit:4;stroke-dasharray:none" />
    <path
       d="m 7431.3956,2008.7616 -1,-2 9,-8 -1,-5 -3,-4 -1,-7 -12,0 -2,-5 -2,-4 -8,-7 14,-2 2,-3 4,1 6,-3 11,-22 -2,-5 3,-2 0,-8 7,-11 0,-15 18,-4 0,-6 7,0 4,-2 2,2 5,-6 8,0 9,-7 15,0 7,11 1,4 5,4 13,6 9,0 11,3 35,-22 8,3 6,-2 14,5 18,0 7,9 4,-2 6,4 7,-2 8,6 1,3 9,-2 2,5 18,-3 3,1 5,5 5,0 5,-4 11,5 1,2 6,-2 12,2 3,3 8,-10 -2,-4 2,-5 -4,-11 2,-11 0,-8 -5,-14 0,-4 4,-17 6,-13 1,-9 9,-1 10,-9 5,-3 6,1 8,5 14,-5 15,-12 -3,-4 -5,-3 -3,-5 -2,-5 -7,-1 -9,-9 5,-4 7,-1 3,5 2,0 7,-5 5,8 8,1 5,-8 7,-6 3,-13 13,-1 4,10 3,4 8,-8 8,-1 5,2 1,8 4,2 1,10 6,6 3,11 4,3 2,-2 1,-5 9,10 8,4 4,3 1,5 -13,11 -7,10 -2,7 -5,3 -10,31 0,5 2,5 7,9 7,6 2,4 -3,7 3,3 1,11 3,4 8,3 5,5 16,7 8,2 10,-1 15,8 21,-4 5,10 3,0 5,-3 7,0 2,3 14,9 1,4 0,5 6,2 6,-5 7,5 5,7 9,5 -3,3 1,3 3,2 -1,5 5,5 -2,7 -7,2 -5,8 2,6 5,3 2,5 -5,1 -1,3 8,9 3,1 -2,2 4,4 0,11 2,2 10,0 1,7 -1,2 2,5 -1,3 -5,3 0,4 3,0 0,2 2,2 0,2 2,1 1,1 2,-1 2,4 5,-2 10,4 -1,4 1,2 3,1 0,3 -2,1 2,2 -1,6 3,3 0,3 4,3 -4,5 0,1 2,3 -1,2 1,4 -7,3 0,-3 -2,0 0,4 -4,2 -3,-3 1,-3 -3,0 -5,3 -1,-2 -2,0 0,-3 -3,-1 2,-5 -1,-4 -10,-4 -1,6 -4,4 -5,7 1,2 3,0 0,2 2,4 -2,3 1,2 -9,0 -8,-4 -7,0 -17,8 -11,1 -8,5 -5,0 -4,6 -10,-2 -4,-4 -16,-4 -8,-5 -3,-1 -8,8 -8,-1 -6,7 -4,0 -14,-7 -7,6 -6,-2 -10,5 -3,-3 -15,-2 4,-12 -3,-5 -7,-4 -13,-3 -6,3 -3,-5 -13,-10 -3,5 -6,1 -1,3 -6,-2 -4,2 -3,6 -10,-1 -7,4 -2,-5 -9,1 -4,-1 -2,2 -9,1 -5,6 -4,-1 -4,-8 -5,-3 -4,-2 -7,0 -4,1 -2,6 -5,-1 -27,11 -3,-3 -10,4 -7,-5 -3,1 -2,4 -12,4 -2,3 -4,-3 -2,3 -5,-2 -13,1 -7,-4 -1,3 4,4 -11,2 -7,4 -1,5 -11,0 -7,4 -11,-2 -1,-5 -2,-1 3,-15 -2,-6 -2,-2 -24,-6 0,-7 -3,-7 -2,-2 -7,1 -8,-2 -4,-5 0,-3 -11,-4 -3,-2 -1,-3 0,-4 11,-10 -2,-6 2,-4 -2,-3 9,-3 3,2 11,0 -1,-5 1,-7 -3,-3 1,-3 -1,-1 -4,-2 -4,1 -2,4 -3,-1 -2,-4 -2,-1 -3,-9 -2,-2 -11,-4 -8,2 -4,-5 -5,0 -3,-4 -5,-2 -10,3 -9,-1 -2,-3 -3,-2 -2,-4 -7,-4 -1,-5 -2,-2 -8,2 -3,-2 -6,5 -5,-4 -11,4 -4,3 -7,-5 -1,-3 -3,-3 -3,-1"
       id="momskij_ulus"
       inkscape:connector-curvature="0"
       style="fill:#00329a;fill-opacity:1;stroke:#ffffff;stroke-width:1.62081647;stroke-linecap:round;stroke-linejoin:round;stroke-miterlimit:4;stroke-dasharray:none" />
    <path
       inkscape:connector-curvature="0"
       d="m 7115.3907,2877.4905 2,-6 1,-5 13,-7 6,-8 6,0 3,-6 -4,-9 -26,-5 -20,-22 -11,-21 4,-1 3,6 19,-7 3,-14 1,-17 4,-19 -3,-7 2,-17 28,1 4,-4 13,5 3,-9 6,-6 1,-5 5,-9 11,5 -7,17 1,2 12,2 3,2 3,4 -4,1 -1,-2 0,9 2,5 1,8 4,4 2,5 1,2 -1,2 9,12 3,8 1,8 0,8 5,4 7,1 14,-2 10,5 -4,2 4,6 -6,10 -6,3 -4,10 2,12 7,4 -4,3 -4,8 -15,4 -1,12 -4,5 -12,4 -12,-7 -19,-1 -11,7 -6,11 -17,4 -8,-3 -19,-12"
       id="namskij_ulus"
       style="fill:#003196;fill-opacity:1;stroke:#ffffff;stroke-width:1.62081647;stroke-linecap:round;stroke-linejoin:round;stroke-miterlimit:4;stroke-dasharray:none" />
    <path
       inkscape:connector-curvature="0"
       d="m 6814.3907,3773.4905 1,-11 2,-4 5,0 1,-6 3,-5 -1,-3 1,-4 7,-2 4,-7 7,4 8,-7 6,-1 3,-6 7,1 5,-4 6,0 6,4 3,4 8,-2 9,5 1,-9 4,0 13,-10 1,4 11,-2 -1,-5 0,-4 3,-3 5,4 11,-1 10,3 3,4 2,10 18,15 15,1 6,4 5,-4 7,0 -3,-5 3,-5 -1,-3 -8,-2 -5,-7 1,-2 -7,-4 -1,-3 4,-12 10,-1 3,-4 3,-11 -2,-8 2,-6 -2,-2 -5,1 -3,-6 3,-3 -1,-4 4,-1 -2,-15 5,-4 -2,-13 -3,-10 2,-9 -2,-7 7,-8 -1,-5 4,-12 0,-4 -2,-3 -10,3 -7,-7 4,-7 -2,-2 2,-5 8,-7 11,-1 5,2 2,-1 4,2 10,0 4,-3 -1,-4 6,0 -1,-4 11,0 -2,-3 -4,-2 4,-4 -3,-5 7,5 6,-10 -3,-3 -3,1 -2,-4 1,-1 12,4 1,-2 -2,-3 0,-4 -2,-3 -3,-5 5,-2 1,-2 -1,-2 12,-7 12,-3 4,2 0,2 -4,6 0,11 -11,10 6,3 1,7 -1,2 3,1 1,2 -1,7 2,4 1,9 0,2 -5,2 -3,7 2,6 6,1 3,5 0,3 -2,4 2,5 -4,2 -1,5 4,4 5,1 5,8 4,1 2,2 6,0 6,6 8,3 20,-14 9,4 2,3 4,-1 -1,-5 3,-5 -3,-12 3,-3 4,0 1,-2 -2,-4 0,-2 10,0 7,0 2,2 2,7 6,4 13,0 4,4 5,1 6,4 19,-4 9,-6 3,8 5,2 34,-5 6,2 3,3 0,4 4,8 8,10 6,5 11,2 8,5 4,1 7,-15 3,-2 3,-1 12,6 1,-6 6,-4 10,1 5,3 5,-2 6,2 3,-6 4,-3 -1,-5 4,-9 17,-3 3,5 8,-3 4,3 12,-10 1,-3 8,-3 8,-11 14,-6 24,-3 8,4 1,5 5,4 1,4 3,-6 -1,-2 -1,-3 1,-3 7,3 1,3 9,5 7,-1 4,-4 4,-9 5,-5 5,-21 11,-8 4,-7 11,-6 4,-7 7,3 1,1 -3,2 3,3 2,0 1,4 3,-1 4,4 3,0 1,3 2,-1 0,2 3,0 1,4 4,0 2,4 3,-2 2,4 4,1 -1,1 2,4 3,0 1,4 -4,1 3,3 -3,1 2,2 -5,5 4,1 -2,4 2,1 -1,2 3,1 0,2 2,3 -2,6 10,3 -1,2 -2,2 -2,-3 0,6 -4,-2 -1,-7 -5,2 -1,-3 -6,0 -2,10 4,3 0,4 -3,0 -1,-2 -1,0 0,-3 -5,-3 0,3 -8,2 2,3 -2,5 1,0 1,1 -2,1 1,2 -1,1 1,2 -2,2 1,2 0,2 1,-1 -1,1 1,1 0,1 4,4 0,2 2,2 1,4 0,9 -4,8 0,5 3,7 -1,10 5,6 -3,8 3,1 4,8 6,2 2,8 3,3 0,2 -5,3 -12,-2 -4,2 -4,0 -7,7 -9,1 -2,1 1,2 -6,1 -7,7 -5,-1 0,3 -5,2 -5,-4 -5,-2 -1,6 -4,1 -3,-3 -5,4 -4,-2 -1,3 -6,6 -4,-2 -1,7 -4,0 -2,4 -1,-2 -3,3 -3,-1 -4,6 -8,4 1,4 6,5 1,5 3,4 -1,5 -7,6 -4,-1 -3,3 -3,-2 1,3 -3,3 -2,-3 -5,1 -1,-2 0,-4 -2,-1 -4,5 -8,3 -4,-6 -8,-2 -5,-5 -5,-1 -6,2 -8,8 -16,6 -3,0 0,-2 -3,-4 -4,0 -3,3 -2,7 -5,3 8,8 -7,1 -2,5 -3,1 -1,-2 -6,-1 -1,-3 -3,-1 1,-1 -2,-4 -4,3 -7,-3 -2,4 -12,3 -2,2 -1,3 2,2 1,4 -4,4 -5,0 -3,5 -5,-4 0,-3 -1,-1 -6,4 -4,7 3,2 0,2 -4,4 -4,1 -3,-3 -4,3 -3,-3 -13,8 -2,-1 0,-3 -2,-3 5,-2 -2,-3 -4,0 -2,-3 1,-1 -4,-2 -3,3 -2,-6 -12,-1 -12,5 -5,10 -3,-1 -2,-2 0,-2 -5,-1 -2,-5 -3,-3 -7,1 -7,-2 -10,7 0,4 -5,0 -2,2 0,3 -10,-1 0,-2 -5,3 -7,-6 -5,0 -4,9 -4,1 -4,-3 -2,1 -1,-5 -5,-4 -2,-8 -4,-2 -11,1 1,-3 -2,-3 -1,-3 -4,-5 -13,-4 -8,-10 1,-3 -3,1 -3,-3 -9,-2 -4,0 -4,5 -36,6 -3,-2 -3,1 -2,-2 -5,-2 -2,-3 -9,-1 -2,-2 0,-2 -2,-1 -5,3 0,2 1,2 0,3 2,1 -2,5 -5,0 -2,5 -6,0 -6,-8 -4,-1 -4,-5 -11,-1 -6,-5 -5,-1 1,-3 -4,-2 -12,1 -2,3 -5,3 -13,0 -5,5 -2,-3 1,-4 -5,-7 -5,0 -3,-6 0,-3 -5,-4 -4,-2 -20,4 -3,3 -8,-7 -7,0 -7,5 0,2 -9,0 -4,4 -5,-1 -17,7 -2,6 -8,11 -3,1 0,3 -7,1 -5,4 -3,-2 -5,-9 -10,1 -5,-4 -1,-2 -2,-3"
       id="nerjungrinskij_ulus"
       style="fill:#a5c2ff;fill-opacity:1;stroke:#ffffff;stroke-width:1.62081647;stroke-linecap:round;stroke-linejoin:round;stroke-miterlimit:4;stroke-dasharray:none" />
    <path
       id="nizhnekolymskij_ulus"
       d="m 8145.3907,906.49055 4,-2 -6,5 -2,-3 -2,0 2,-3 4,3 m -4,5 -1,1 0,-1 1,0 m -22,36 -5,1 0,-2 -1,0 -1,-5 -2,-2 -3,0 0,3 -1,-2 -2,1 -1,-1 3,-3 9,-2 0,1 2,1 1,2 7,1 -6,7 m 49,-30 2,1 -10,-1 -4,2 -2,-4 -1,-1 1,-1 8,-2 0,3 5,1 1,2 m 5,6 2,1 -2,1 -1,-1 -1,-2 2,1 m 33,-21 -4,5 -6,0 11,-8 -1,3 m 37,149.99995 -2,2 -3,-1 0,2 2,0 -3,1 -1,-3 7,-2 0,1 m -372,297 -6,-44 -2,-1 -8,-6 -2,0 -3,-7 -12,1 -1,-2 6,-3 -1,-2 6,-1 -2,-1 -1,-5 -2,1 0,-4 -4,-1 4,-11 -2,-3 -4,-1 -5,2 -6,-3 -3,-11 -4,1 -5,-5 -2,-4 2,-6 -2,-4 1,-9 -6,-2 -2,-4 -1,-1 1,-2 0,-4 -6,-5 -1,-5 3,0 14,-10 23,-27 3,-2 3,1 4,-10 19,-27 47,-57 24,-18 2,0 1,3 2,-1 -2,-3 1,-3 14,-11 36,-20 30,-12 34,-7.99995 34,-1 18,5 19,8.99995 12,8 11,8 4,15 3,7 -9,6 12,-4 2,7 2,4 2,2 1,13 5,6 8,2 1,1 1,2 1,0 30,-9 2,2 0,4 12,6 0,-2 -2,0 -8,-6 0,-5 6,-5 17,-8 5,0 0,-2 -3,-1 1,-1 5,-4 1,1 -4,2 1,2 3,0 -2,5 6,-2 2,4 0,5 2,1 0,3 -1,2 2,4 5,-1 0,3 3,3 11,5 1,4 5,3 1,5 6,4 2,6 3,-5 -6,-4 -7,-11 -3,-1 -4,-5 4,0 0,5 3,-1 -2,-3 -11,-6 -6,-6 4,-20 -2,0 2,-2 -3,0 0,-5 -5,0 2,2 0,3 -3,-4 9,-8 8,1 3,7 5,2 0,4 4,2 -2,6 1,1 -2,0 -1,5 0,-2 -1,0 -1,6 5,3 1,5 4,-1 2,1 1,8 4,2 3,-1 1,-1 -2,0 -3,-5 0,-4 -1,4 -1,-5 -5,-2 -2,-2 3,-1 -4,-2 1,-2 -2,-2 4,-6 -2,-8 -1,0 1,-5 0,-3 0,-2 4,-11 -3,2 -2,-2 -1,-3 3,-2 -2,-2 2,-2 1,3 0,2 1,0 0,-6 3,-2 0,-2 -3,-1 -1,-2 3,-1 3,-4 -1,-3 -3,-1 6,-2 3,2 -3,5 0,5 7,0 -2,4 2,1 -1,1 11,4 2,4 -1,4 11,-3 2,2 1,4 6,2 10,0 5,3 3,1 2,-2 1,5 -3,3 2,3 -4,7 3,5 2,1 4,0 0,2 2,2 1,3 15,-1 2,1 2,2 8,2 -2,3 3,8 -7,4 10,9 6,-1 6,6 3,1 1,8 2,3 -1,6 6,3 2,7 3,5 3,1 -1,11 -12,3 -2,-1 -6,5 -5,0 -2,5 -3,1 -4,5 -6,-1 -8,7 -7,13 -2,12 -9,15 -13,13 -7,2 -9,6 -1,4 -6,5 0,5 2,2 0,1 2,1 -1,2 -2,1 -2,-1 -5,-1 -7,11 1,2 -4,1 -4,4 1,4 -6,8 -1,10 -6,1 0,3 -7,2 -7,15 1,2 -2,4 -3,-1 -7,-4 -5,-1 -6,-22 -8,-4 -6,0 -5,-11 -6,-2 -5,-4 -25,5 -9,6 0,9 -7,8 -9,0 -12,6 -8,1 -3,12 -4,0 -12,-6 -21,4 -16,18 -3,-1 0,-3 -3,-4 1,-1 -5,-5 0,-2 -3,-5 0,-3 -4,1 -3,5 1,3 -7,1 -8,8 -4,0 -4,-7 -12,3 -13,12 -6,9 -35,-1 -9,-8 -23,-4 3,6 -5,4 1,3 -3,5 -3,-1 -3,4 -1,-4 -3,1 -2,-3 -3,0 -1,4 -3,-1 -4,9 -4,2 -1,4 -5,0 -1,6 -7,0 0,-2 -7,-6 -17,1 -9,-3 -10,-12 m 409,-329 -1,-1 1,0 0,1 m -3,18 -7,-4 5,-9 4,-3 -1,6 4,3 4,2 0,2 -4,5 -5,-2 m -17,26 0,-1 2,-2 0,2 -2,1 m 28,-20 -1,2 -3,-2 0,-1 1,2 3,-1 m -29,30 0,-1 0,1 m 12,9 0,-1 2,2 -2,-1 m 26,3 -1,-2 0,-1 1,1 0,2 m -39,-27 0,-1 2,0 1,2 -3,-1 m -2,1 0,-1 0,1"
       inkscape:connector-curvature="0"
       style="fill:#256cff;fill-opacity:1;stroke:#ffffff;stroke-width:1.62081647;stroke-linecap:round;stroke-linejoin:round;stroke-miterlimit:4;stroke-dasharray:none" />
    <path
       inkscape:connector-curvature="0"
       d="m 6224.3907,2840.4905 -1,-6 3,-5 4,-1 3,-11 4,0 3,-5 3,-1 -3,3 1,4 2,3 3,-4 -1,-6 5,0 1,2 1,-2 -10,-9 -3,-4 5,0 6,6 3,-1 -4,-4 -3,-5 4,-3 4,2 -1,-4 -4,-4 0,-2 7,-4 0,-4 3,-2 4,0 0,-2 4,0 2,2 2,-1 1,-4 6,2 2,-4 -1,-3 -9,-2 -2,-4 7,-1 -6,-3 0,-2 9,-1 8,2 2,-2 -5,-6 2,-1 7,3 3,-1 2,-5 6,2 0,-7 -6,-3 3,-3 6,6 6,2 1,-1 6,-8 5,-1 0,4 -8,4 1,5 4,1 6,-6 3,-2 7,3 4,-5 2,3 0,4 -5,2 -1,3 4,3 5,-3 4,-11 3,2 -2,-3 1,-5 3,5 1,-3 -1,-2 3,-1 -2,-6 1,-2 2,2 6,-4 -3,-2 1,-3 -2,-3 4,0 -3,-7 2,-1 2,6 1,-4 4,0 0,-3 5,-1 -1,-5 3,-3 -2,-6 3,1 0,-4 -1,-3 -1,-2 3,-2 -1,-3 -4,-2 -1,-4 5,-3 4,-7 0,-4 2,-5 4,-4 1,-11 2,-3 1,-4 -1,-2 2,-3 15,-3 8,-6 4,1 2,-3 0,2 0,2 2,0 -2,3 3,1 -3,1 3,2 0,2 6,1 -1,2 3,0 7,5 -3,4 3,3 1,-2 1,3 1,0 0,1 0,2 2,1 -3,9 11,4 0,1 1,1 -2,1 5,4 -2,4 5,4 0,4 3,2 1,6 2,0 -2,3 20,9 2,3 1,6 3,3 0,8 3,2 0,3 3,3 0,3 2,1 -1,10 3,5 -1,3 5,4 0,5 -3,2 5,4 -2,2 2,8 -3,1 1,6 5,1 1,6 0,2 6,8 -3,1 0,4 4,8 8,6 -1,2 1,3 6,5 3,-1 1,4 0,2 2,3 4,0 15,16 8,4 4,6 2,4 -3,0 -1,15 4,7 12,10 -3,1 3,4 -5,8 -3,14 -6,6 0,5 -5,5 0,4 4,10 5,2 2,3 1,5 5,0 2,5 0,4 6,4 1,3 1,3 -3,4 0,4 7,7 1,3 -1,5 3,6 -9,1 -6,5 -10,-3 -1,4 -30,-5 -8,-7 -13,5 -3,6 -5,0 -7,-7 -8,-1 -6,-3 -1,-3 -8,2 -8,-4 -5,0 -2,2 -8,0 -13,-3 -13,-5 -20,4 -22,11 -10,-2 -7,-12 -6,5 0,-5 -5,3 1,-6 -4,2 -3,-4 -4,3 1,-4 -7,-6 3,-4 -2,-3 -3,0 0,-3 -8,1 1,-10 -3,1 1,-7 -5,3 -7,-2 5,-4 -2,-2 -2,-7 7,-4 -11,0 -5,-8 -5,0 1,-3 4,-3 -4,0 -3,-6 -4,1 -4,-3 2,-1 1,-5 -5,-4 -5,-1 -12,-11 -5,1 -2,-5 -4,1 -2,-3 -3,0 -2,-4 -9,1 -7,6 -7,-2 -3,-8 1,-4 -1,-7 -2,-5 -4,-3 -2,-5 -1,-5 1,-4 -7,-7"
       id="njurbinskij_ulus"
       style="fill:#00339c;fill-opacity:1;stroke:#ffffff;stroke-width:1.62081647;stroke-linecap:round;stroke-linejoin:round;stroke-miterlimit:4;stroke-dasharray:none" />
    <path
       inkscape:connector-curvature="0"
       d="m 7611.3907,2268.4905 1,-9 -3,-11 3,-3 0,-3 -2,-3 0,-2 -2,-3 2,-16 4,-6 0,-8 -3,-9 1,-3 6,-4 5,2 2,-6 1,-9 7,-4 11,-1 1,-4 7,-5 11,-2 -4,-3 1,-3 7,4 13,-1 5,2 2,-3 4,3 2,-3 12,-4 1,-4 4,-1 7,5 10,-4 3,3 27,-11 5,1 2,-6 4,-1 7,0 4,2 5,3 4,8 4,1 5,-6 9,-1 2,-3 4,2 9,-2 2,6 6,-5 10,1 4,-6 4,-1 6,2 1,-3 6,-1 3,-5 13,9 3,6 6,-3 12,3 7,3 3,6 -4,12 14,2 4,2 10,-5 6,2 7,-6 13,8 4,-1 7,-7 8,2 8,-8 3,0 8,6 16,4 4,3 10,2 4,-5 6,1 -1,1 1,0 2,5 1,5 2,3 0,7 -1,3 3,4 -1,5 1,3 -7,7 -3,8 -4,2 -8,14 0,3 8,1 -1,1 4,6 1,1 2,2 0,1 2,1 0,5 -2,0 0,3 -1,0 2,1 -1,3 1,3 0,6 0,3 4,2 -1,4 4,5 3,8 -1,3 2,2 0,3 1,2 -2,2 0,10 5,6 1,4 11,11 -1,3 1,2 5,-1 6,6 -1,2 4,2 4,5 2,4 -1,2 5,10 6,-1 3,2 -3,3 1,3 7,4 -2,1 0,4 4,1 3,3 3,1 -2,8 -8,0 -1,5 2,3 -4,0 -1,2 6,4 1,3 0,3 1,0 3,4 4,1 0,2 2,2 -2,2 3,1 -3,5 2,1 -1,3 -2,2 -4,-1 0,3 4,2 -1,4 2,3 -6,3 2,3 -5,10 4,6 -2,5 1,4 -2,5 4,3 0,3 2,0 -2,2 -1,5 2,0 0,1 2,2 -4,6 -3,0 1,7 -2,0 -3,6 2,3 -1,3 -6,-1 0,4 -4,-1 -7,4 -1,-2 0,-1 -2,0 0,-4 -3,-4 1,-3 -2,-2 0,-3 -5,-1 0,-2 -2,-2 -1,1 -1,-3 -2,-3 -2,1 0,5 -4,4 1,2 2,2 1,2 -4,3 2,1 -1,2 1,1 -2,3 -1,-1 0,-2 -2,1 -1,-4 -3,-3 -2,0 0,-5 -3,-3 1,-3 -11,1 -2,2 0,5 -6,1 -3,-1 -3,-3 0,-2 -5,-1 -2,3 -2,1 -1,3 2,2 3,0 0,14 -2,1 2,3 0,3 2,2 -2,3 -3,-1 -1,2 -6,-3 -3,2 -1,-2 -5,1 -1,2 1,2 -8,13 1,4 -6,-3 0,-3 -3,-3 -8,3 -1,-4 -3,0 0,-2 -6,-1 -3,-3 -3,2 0,6 -2,-1 -1,5 -5,-1 -3,7 -4,-5 1,-2 -1,-3 -7,5 -3,-2 -5,0 -2,-3 -5,1 -6,-10 -5,-4 -6,0 -1,-2 -2,0 -2,-2 -4,-1 -5,-6 -3,5 -4,-1 -1,4 -5,-3 -2,-4 -3,-2 -3,4 -4,-2 -3,2 -2,-2 -3,0 -4,5 1,3 -1,2 2,1 1,2 -2,1 1,2 0,3 -6,4 -8,-8 -1,-3 -2,-2 -17,-4 -3,-5 -5,1 -1,-3 -3,-1 -5,0 -10,10 0,6 -2,1 -1,-3 -7,-4 -5,-6 -9,3 -2,-2 -1,-6 2,-14 -2,-1 -6,3 -2,-2 -2,-4 1,-5 -6,-7 -1,-3 0,-4 -5,-6 0,-10 -2,-6 7,-11 0,-8 7,-17 0,-4 15,-11 8,0 -6,-8 -1,-6 -3,-3 -1,-6 -2,-3 -8,1 -4,-12 -1,-4 3,-4 0,-3 -4,-4 1,-7 -3,-17 -2,-3 -9,-7 -14,1 -8,-5 -4,1 -4,-4 -11,2 -8,-1 -1,-4 9,-13 2,-8 -6,-9 -3,2 -5,-4 -5,2 -6,-1 -1,-2 -8,-1 -3,-3 -5,1 -2,-3 -3,-2 -7,-3 -3,2 -3,-2 -6,1 -7,-8 -7,1 -7,-3 -3,-4"
       id="ojmjakonskij_ulus"
       style="fill:#004ce8;fill-opacity:1;stroke:#ffffff;stroke-width:1.62081647;stroke-linecap:round;stroke-linejoin:round;stroke-miterlimit:4;stroke-dasharray:none" />
    <path
       inkscape:connector-curvature="0"
       d="m 5668.3907,2577.4905 7,-2 2,1 15,-5 5,-12 0,-7 8,-1 3,-5 3,0 5,-10 5,-4 3,3 7,0 1,-5 4,-6 -2,-23 -1,-24 -4,-24 -4,-58 -12,-84 -50,-72 0,-2 1,-3 8,-6 0,-6 5,-9 7,1 2,5 12,-1 37,-24 11,-5 6,1 3,-4 0,-4 -2,-3 3,-3 -2,-3 5,0 1,-4 3,-3 0,-3 1,-1 23,1 11,-4 2,2 -1,3 2,5 14,0 5,-4 1,-2 -1,-4 3,-1 -1,-7 1,-3 -2,-2 1,-3 -1,-5 6,-5 0,-5 -3,-2 -3,1 -5,-4 -1,-8 -4,-2 0,-4 -1,-4 7,-2 6,-6 2,-5 -3,-5 1,-1 -3,-3 4,-3 15,-6 3,-3 3,2 4,-3 8,-1 0,-3 -1,-1 -5,0 -5,-4 -1,-3 -2,-3 3,-3 -4,-6 2,-3 -2,-4 9,-6 -1,-2 1,-2 9,-4 -2,-3 1,-4 5,-4 6,-3 5,2 9,-11 15,-5 3,-3 1,-7 7,-3 5,-6 3,2 3,-3 3,-1 2,-4 0,-4 1,-4 3,-1 6,6 3,1 0,-7 3,-4 6,-1 1,-5 4,-1 -5,-5 0,-3 6,-5 2,-8 -4,-2 -2,-3 -1,0 -6,4 -2,-3 -4,-1 -3,-4 -6,-4 -12,-1 -18,-100 -8,-1 3,-4 7,-2 7,-6 8,2 9,-4 14,-1 14,-7 3,2 2,4 -1,4 3,3 8,5 1,7 -7,8 0,5 4,3 0,3 2,3 3,0 -4,4 -1,5 11,8 2,2 1,6 3,2 9,1 0,1 3,3 2,3 -1,2 -7,10 2,8 12,-3 5,1 -1,9 1,4 1,10 -4,8 2,3 4,1 0,6 -2,9 4,1 -1,4 0,3 -6,-2 -7,3 -1,2 -7,1 1,4 3,6 -3,6 3,4 -3,3 -2,-1 -2,5 19,4 14,-4 11,4 4,-4 2,-6 4,-3 5,2 2,-1 -1,-6 2,-9 5,1 6,-6 5,2 8,-7 0,-5 6,-2 5,-7 2,-7 -3,-1 -1,-2 5,-8 0,-4 -9,-6 -10,0 -7,-6 -6,1 -6,-3 0,-1 -2,-2 -6,0 0,-2 0,-3 7,-2 -1,-2 -2,-2 0,-2 3,-1 5,-6 0,-3 -2,-3 2,-2 2,-6 7,-3 0,-3 4,-3 -1,-3 2,-6 3,0 -1,-4 1,-4 3,-3 13,-4 9,1 4,-3 2,1 10,-5 0,-3 2,-1 -2,-5 -5,-1 -14,3 -3,-4 4,-11 -2,-4 4,-2 5,-13 -6,-2 6,-5 0,-3 2,-1 0,-4 4,-3 2,1 3,-8 3,-1 1,1 0,4 4,3 22,-3 2,-2 -1,-3 3,-6 7,-3 -1,-2 5,0 -1,-4 3,-7 20,5 1,4 2,1 14,-3 10,-5 4,1 3,-2 0,-3 7,-3 1,3 3,-1 7,-7 4,-1 7,-5 1,-6 4,-4 17,1 3,-2 4,2 5,-5 0,-5 3,-5 2,-1 3,4 7,3 17,-11 5,1 0,10 3,6 -1,6 4,4 -3,8 2,4 9,9 3,-3 6,13 13,10 8,-1 9,9 7,2 1,7 -1,7 9,6 3,-3 4,2 4,10 7,5 6,-3 1,5 16,10 0,2 -5,0 -7,8 -2,5 8,13 -1,4 9,7 1,3 -5,1 -1,5 -4,0 -9,11 2,5 -1,4 7,6 -1,10 2,7 -7,6 2,7 -3,6 -10,9 -11,2 -3,5 -10,4 -14,1 4,7 3,7 -1,2 2,7 -4,3 1,7 -9,6 -3,10 2,7 0,3 4,2 2,4 3,-2 3,2 1,6 4,4 -5,2 1,3 2,2 1,3 -3,3 2,4 -1,2 3,4 -2,3 3,5 10,2 2,2 -2,3 0,5 -2,4 1,3 -7,6 3,4 0,9 3,1 -5,7 -5,3 1,4 -2,4 -3,2 -1,4 3,6 -9,23 0,6 5,7 5,3 26,5 7,4 4,5 1,3 5,13 8,-1 9,7 2,7 -1,8 3,6 0,5 -10,1 -8,7 -4,0 0,-2 -5,1 -2,6 1,3 2,5 0,4 -10,1 0,5 5,5 3,4 2,10 0,3 -3,6 0,3 -3,2 -8,-3 -8,5 -3,-2 -1,3 -13,3 -2,3 -4,-1 -1,4 -4,0 -1,4 -6,3 -1,4 3,6 11,13 0,3 -5,2 1,3 -3,3 -1,7 -6,1 -3,6 -9,1 -3,-2 -20,13 1,2 -1,7 32,21 2,2 0,3 -7,10 -13,6 -7,7 0,3 1,5 3,4 7,2 0,6 8,2 18,-13 19,10 6,-3 27,2 3,4 5,5 3,7 6,9 0,4 7,9 6,3 -4,6 1,3 -2,9 -11,10 -1,5 -7,-3 -5,1 -10,11 -2,1 -1,-4 -3,3 1,3 -4,0 0,1 1,3 -5,5 1,2 -2,5 1,4 4,5 16,8 3,9 -6,6 -5,8 1,3 -4,5 0,6 3,3 2,4 -2,4 0,3 4,4 -2,3 -8,1 -2,3 1,2 -1,4 -2,3 -1,11 -4,4 -2,5 0,4 -4,7 -5,3 1,4 4,2 1,3 -3,2 1,2 1,3 0,4 -3,-1 2,6 -3,3 1,5 -5,1 0,3 -4,0 -1,4 -2,-6 -2,1 3,7 -4,0 2,3 -1,3 3,2 -6,4 -2,-2 -1,2 2,6 -3,1 1,2 -1,3 -3,-5 -1,5 2,3 -3,-2 -6,13 -3,1 -4,-3 1,-3 5,-2 0,-4 -2,-3 -4,5 -7,-3 -3,2 -6,6 -4,-1 -1,-5 8,-4 0,-4 -5,1 -6,8 -1,1 -6,-2 -6,-6 -2,1 -1,2 2,1 4,2 0,7 -6,-2 -2,5 -3,1 -7,-3 -2,1 5,6 -2,2 -8,-2 -9,2 6,4 -7,1 2,4 9,2 1,3 -2,4 -6,-2 -1,4 -2,1 -2,-2 -4,0 0,2 -7,2 0,4 -7,4 0,2 4,4 1,4 -4,-2 -4,3 3,5 4,4 -3,1 -6,-6 -5,0 3,4 10,9 -1,2 -1,-2 -5,0 1,6 -3,4 -2,-3 -1,-4 3,-3 -3,1 -3,5 -4,0 -3,11 -4,1 -3,5 -7,2 -2,-4 2,-5 -2,-2 -4,1 0,-7 -3,-10 -7,-6 -16,3 -7,-1 -9,4 -4,-14 -3,-3 -5,0 -4,-2 -6,1 -2,-3 -3,-1 -1,-3 0,-3 -1,-2 -8,0 -2,-2 -4,6 -6,4 -4,-1 -1,-3 -3,-2 1,-1 -2,-4 2,-3 -4,-7 -2,-2 -1,-4 2,-3 6,-3 5,3 1,-2 1,-4 -2,-8 -3,-2 1,-3 -2,-3 0,-4 2,-2 -1,-2 -14,4 -5,-2 -8,0 -3,-3 0,-4 10,-5 -1,-3 7,-2 0,-2 -2,-6 1,-4 5,-11 5,-6 1,-11 4,-5 4,-5 18,0 4,-5 -7,-15 -3,-1 -6,-6 0,-4 -1,-5 0,-7 -4,-3 0,-2 -8,-12 0,-7 -6,-2 0,-5 -4,3 -1,-6 -10,-4 -3,-6 -7,0 -4,-6 -15,2 -3,3 -7,1 -12,-4 -10,5 -15,3 -8,10 -11,-2 -8,8 -16,3 -6,4 -4,12 -10,0 -3,5 3,6 0,4 -12,6 -5,11 -7,1 -4,3 -3,6 -11,4 0,6 -8,1 -2,-2 -3,-13 1,-17 -2,-5 -10,-6 3,-7 -8,-10 -12,1 -6,-5 0,-5 0,-4 3,-3 -1,-4 -7,-6 -4,2 2,6 -4,-2 -10,9 -16,4 2,4 7,2 -14,21 2,12 -2,4 -3,0 -5,-6 -5,-1 -15,1 -3,4 -12,3 -9,-3 -7,-6 -4,7 -4,2 -2,5 -6,3 -15,-7 -10,-1 1,-4 -6,-5 0,-3 1,-2 -3,-6 2,-6 -6,-3 -1,-2 0,-3 -2,0 3,-3 1,-4 -5,0 -2,3 -6,-2 5,-9 1,-2 -2,-3 -3,2 -10,-3 -1,-2 1,-2 -9,3 -9,-6 0,-3 -3,-2"
       id="olenjokskij_ulus"
       style="fill:#002c86;fill-opacity:1;stroke:#ffffff;stroke-width:1.62081647;stroke-linecap:round;stroke-linejoin:round;stroke-miterlimit:4;stroke-dasharray:none" />
    <path
       inkscape:connector-curvature="0"
       d="m 6519.3907,3391.4905 0,-3 -1,-8 1,-6 16,-15 1,-7 -2,-8 11,-23 -1,-9 -5,-3 -2,-4 0,-2 4,-6 14,-3 2,-15 3,-6 11,-7 0,-9 3,-10 13,-17 -5,-9 16,-19 6,-5 2,-3 3,-13 17,-18 2,-9 -1,-4 0,-4 7,-7 0,-5 -1,-10 -7,-3 0,-2 4,-11 7,-4 3,0 3,6 11,1 4,3 9,-1 13,4 25,-6 5,2 5,-1 12,-9 10,-2 6,2 4,5 18,2 -1,4 2,2 35,-13 17,1 9,-8 3,-10 20,-6 35,-21 7,2 11,16 4,4 0,5 3,9 4,4 12,5 5,-2 13,2 6,4 6,4 4,7 10,8 7,9 9,5 5,8 10,5 5,5 -2,11 36,9 6,5 2,4 3,1 3,-5 9,-5 0,-26 3,-2 8,1 4,-2 4,-4 -2,-7 -7,-10 6,-5 11,3 3,0 12,-9 8,-13 6,-6 26,-6 10,-6 5,0 3,-11 3,-1 22,-2 11,15 1,6 0,10 2,10 -1,3 -6,7 -5,8 -4,1 -9,-6 -1,1 0,10 -8,6 -1,7 -2,2 1,18 -7,4 -2,8 -2,2 -2,4 -4,2 -3,-2 -7,-11 -6,1 -4,7 3,7 -6,13 -6,-3 -6,2 1,5 -4,8 -1,10 -6,3 -5,-2 -4,-4 -13,5 -10,9 0,6 2,3 1,5 -4,2 1,5 -8,6 0,5 -4,0 -8,7 -4,-1 0,9 -12,3 -13,-1 -3,3 -1,3 4,5 0,3 -8,4 0,2 3,7 0,1 -1,3 -3,-1 -2,5 6,12 -1,3 -6,2 1,5 -1,3 -2,-2 -2,2 -2,3 -5,2 -1,0 -2,-5 -2,-1 -8,5 0,3 -5,1 -1,5 -5,-2 2,10 -1,3 0,4 -5,5 0,5 -13,11 -6,13 1,3 -1,2 -6,2 0,14 -1,4 3,5 -1,4 1,5 3,5 17,5 4,3 5,1 2,4 -7,5 2,8 -5,4 -2,15 8,21 7,10 1,3 -2,2 -8,3 1,4 2,5 0,3 6,9 1,4 5,-3 1,-4 13,-3 7,8 10,-3 2,3 0,4 -4,12 1,5 -7,8 2,7 -2,9 3,10 2,13 -5,4 2,15 -4,1 1,4 -3,3 3,6 5,-1 2,2 -2,6 2,8 -3,11 -3,4 -10,1 -4,12 1,3 7,4 -1,2 5,7 8,2 1,3 -3,5 3,5 -7,0 -5,4 -6,-4 -15,-1 -18,-15 -2,-10 -3,-4 -10,-3 -11,1 -5,-4 -3,3 0,4 1,5 -11,2 -1,-4 -13,10 -4,0 -1,9 -9,-5 -8,2 -3,-4 -6,-4 -6,0 -5,4 -7,-1 -3,6 -6,1 -8,7 -7,-4 -4,7 -7,2 -1,4 1,3 -3,5 -1,6 -5,0 1,-1 -8,-6 -2,-3 1,-3 -2,-1 0,-1 -6,-7 -8,-2 -4,-6 0,-5 -3,-3 2,-6 2,-2 0,-9 -5,1 -2,-2 -6,2 -3,4 1,5 -2,6 1,2 -1,1 -6,-6 1,-5 -2,-5 -3,-3 2,-1 -2,-8 -8,0 -2,-2 -1,-3 2,-3 -1,-4 1,-3 -2,-4 0,-3 -2,-4 2,-2 -1,-4 -1,-1 1,-1 1,-11 -5,-6 1,-2 -2,-4 2,-4 -3,-1 -5,-8 -1,-9 -2,-3 -3,-1 -2,-3 1,-13 -1,-2 0,-3 -2,-4 -7,1 -3,-5 -3,-1 -4,2 -2,0 0,-3 -2,-1 -4,1 -3,-3 0,-2 3,0 0,-4 0,-4 0,-5 -3,-6 1,-7 -5,-6 -6,-2 -2,-5 3,-4 4,0 0,-6 -6,-7 -8,1 0,-3 -2,-5 -3,-7 -2,-1 2,-11 1,-3 3,0 -2,-5 3,-2 -7,-3 0,-3 -2,-3 0,-5 -8,0 -3,-2 -2,2 -4,-4 -11,-1 -2,-1 -5,-13 -7,-3 -1,3 -7,1 -2,3 -3,-2 0,4 1,5 -4,7 3,5 -2,3 0,4 -3,-1 -3,3 -7,-15 -8,5 -3,6 2,3 -2,1 -5,0 -4,-4 -6,3 -4,-1 -3,3 -3,-4 0,-2 -3,-3 -6,-2 2,-4 -1,-3 3,-4 -4,-5 3,-5 -1,-3 -2,-2 1,-3 -3,-5 1,-4 -9,3 -7,-6 3,-8 4,-1 12,-10 -7,-4 -5,3 -3,4 -10,-1 0,-8 -2,-3 -5,-2 -1,-6 -4,-1 -5,-3"
       id="oljokminskij_ulus"
       style="fill:#004be6;fill-opacity:1;stroke:#ffffff;stroke-width:1.62081647;stroke-linecap:round;stroke-linejoin:round;stroke-miterlimit:4;stroke-dasharray:none" />
    <path
       style="fill:#0037a8;fill-opacity:1;stroke:#ffffff;stroke-width:1.62081647;stroke-linecap:round;stroke-linejoin:round;stroke-miterlimit:4;stroke-dasharray:none"
       inkscape:connector-curvature="0"
       d="m 7758.3907,1598.4905 -1,-3 1,-4 14,-9 4,2 8,-2 3,-5 6,-2 4,-6 8,-4 6,-17 -1,-2 -3,-2 0,-6 -9,-3 -4,0 -3,-2 -14,-3 2,-3 -7,-1 0,-3 5,-6 0,-3 -1,-2 -2,-1 -1,-3 -4,-3 10,-10 2,-7 -1,-4 -3,-5 -7,4 -2,-4 0,-11 -2,-1 -3,-9 -3,-2 -1,-4 12,-8 -1,-3 2,-3 7,0 4,-19 6,-4 4,-9 9,-9 2,-11 5,-10 12,-15 4,-2 1,-9 14,2 8,-2 8,3 15,-4 10,12 9,3 17,-1 7,6 0,2 7,0 1,-6 5,0 1,-4 4,-2 4,-9 3,1 1,-4 3,0 2,3 3,-1 1,4 3,-4 3,1 3,-5 -1,-3 5,-4 -3,-6 23,4 9,8 35,1 6,-9 13,-12 12,-3 4,7 4,0 8,-8 7,-1 -1,-3 3,-5 4,-1 0,3 3,5 0,2 5,5 -1,1 3,4 0,3 3,1 16,-18 21,-4 12,6 4,0 3,-12 8,-1 12,-6 9,0 7,-8 0,-9 9,-6 25,-5 5,4 6,2 5,11 6,0 8,4 6,22 5,1 7,4 3,1 1,2 2,1 4,12 -3,6 2,3 -1,3 2,0 3,3 2,1 7,-5 13,7 -7,7 1,3 -2,1 -2,-1 -2,0 -3,4 -3,1 -1,10 2,0 1,6 2,4 2,1 0,4 3,3 0,2 5,0 4,5 7,-1 3,8 -1,3 3,1 1,3 10,2 9,-3 6,1 1,1 3,1 2,-1 2,2 4,-3 6,3 2,-3 18,-2 3,0 2,2 6,2 3,3 -1,2 3,1 0,3 6,-1 1,2 2,1 -1,1 2,2 10,3 -3,4 0,5 -2,1 0,5 1,2 2,0 0,3 2,1 0,5 3,6 -3,6 2,2 0,5 5,3 -4,8 2,3 2,-2 6,2 6,1 0,4 3,4 0,5 3,4 -1,1 7,3 1,2 7,4 0,4 -5,1 -5,4 -1,-2 -7,1 -5,10 -11,11 1,8 1,2 -7,11 2,4 5,2 2,3 -4,6 -3,0 -2,4 -8,3 -10,0 2,-3 -3,-6 -7,1 -3,-2 -12,-2 -2,-3 -8,-1 -1,4 4,2 -3,7 3,3 -2,6 2,1 0,3 -6,0 -10,6 -3,2 1,4 -5,-1 -2,3 -2,-2 -5,1 -6,-3 -4,0 -1,8 -8,2 -4,7 -8,0 -3,-2 -5,3 1,4 -3,0 -1,3 4,3 -7,8 -4,-4 -3,-1 -10,5 -3,1 -3,-2 -3,2 0,6 -3,2 0,3 4,4 1,3 -3,5 2,6 8,-3 3,3 2,-1 0,4 3,2 3,3 -1,8 3,2 1,8 -3,4 1,4 -4,1 -2,-2 -3,-5 -7,0 -8,9 -4,0 -1,5 -5,-7 -4,0 -2,-1 -1,-2 -3,-1 -1,-4 -4,-1 -7,1 -13,-1 -10,2 -4,-3 -5,0 -6,3 -2,3 -3,0 -5,3 -2,3 -4,-4 -1,-3 -2,-3 -6,1 -2,-2 -6,-1 -7,3 -2,-2 -12,4 -2,-4 -8,0 -39,-24 -55,0 -2,-3 -3,1 -3,-2 -3,1 -4,-3 -4,0 -1,-3 -2,3 -7,-1 -1,3 -3,-3 -4,1 -4,4 -3,-4 -2,3 -4,-3 -3,2 0,-4 -3,1 0,-2 -1,0 -1,-2 -5,-1 -7,-6 -4,1 -2,-2 -1,2 -3,-2 -9,13 -8,5 -14,-6 -16,5 -2,-1 0,-3 -7,-1 -6,-8 -4,-1 -4,1 -4,9 -5,1 -1,9 -7,3 -12,12 -8,0 4,-9 1,-5 8,-9 -1,-10 -5,-5 -3,-6 -5,-3 -2,-6 -2,-3 -9,-4 -2,-3 -17,8 -4,-4 -8,4 -7,-3 -7,-6 -3,-15 -2,-3 0,-9 -12,-1 -8,-3 -3,-3 -3,-1 0,-3 -3,-2"
       id="srednekolymskij_ulus" />
    <path
       inkscape:connector-curvature="0"
       d="m 6218.3907,3042.4905 5,-2 5,-14 13,-3 3,5 3,2 1,-2 -1,-4 6,-2 2,2 5,9 2,1 8,-2 8,-9 0,-2 -11,-9 -2,-10 -4,-2 -5,-9 -6,1 -4,-3 -8,1 -2,-3 -3,-5 0,-4 1,-2 -7,-2 1,-7 6,-7 -8,-13 -3,-16 -11,-4 -6,-7 1,-11 8,3 13,-5 3,-4 -2,-2 1,-5 10,-2 -1,-3 3,-3 7,2 7,-6 9,-1 2,4 3,0 2,3 4,-1 2,5 5,-1 12,11 5,1 5,4 -1,5 -2,1 4,3 4,-1 3,6 4,0 -4,3 -1,3 5,0 5,8 11,0 -7,4 2,7 2,2 -5,4 7,2 5,-3 -1,7 3,-1 -1,10 8,-1 0,3 3,0 2,3 -3,4 7,6 -1,4 4,-3 3,4 4,-2 -1,6 5,-3 0,5 6,-5 7,12 10,2 22,-11 20,-4 13,5 13,3 8,0 2,-2 5,0 8,4 8,-2 1,3 6,3 8,1 7,7 5,0 3,-6 13,-5 8,7 30,5 1,-4 10,3 6,-5 9,-1 6,11 7,-1 3,4 12,4 5,-3 5,5 0,7 28,10 18,22 2,6 -4,12 -3,18 1,8 3,9 -14,-4 -9,1 -4,-3 -11,-1 -3,-6 -10,4 -4,13 7,3 1,10 0,5 -7,7 0,4 1,4 -2,9 -17,18 -3,13 -2,3 -6,5 -16,19 5,9 -13,17 -3,10 0,9 -11,7 -3,6 -2,15 -14,3 -4,-8 -5,-6 -2,-8 -5,-6 -3,-1 -2,-2 1,-3 -6,-6 0,-6 -5,-13 2,-5 -2,-5 -19,0 -4,-5 -4,-1 -2,-5 -7,-5 -1,-4 -12,2 -5,-5 -9,-1 -5,-5 -7,1 -2,-2 -4,-6 -3,0 -8,3 -5,5 -12,0 -7,3 -15,1 -6,17 -7,5 -9,2 -3,-4 3,-7 -6,-8 -9,-3 -3,-4 -1,-7 -4,-6 -5,-4 0,-2 4,-8 -2,-8 1,-4 -6,-3 -6,-16 0,-3 -2,-2 -7,-1 -6,-7 -5,0 -2,-5 -5,-3 0,-2 -1,-2 -4,-1 -2,-3 3,-4 -2,-2 -6,2 -1,-3 4,-1 -3,-5 0,-3 -4,2 -3,-4 -5,0 -2,-4 -3,0 0,-2 -3,-3 2,0 0,-3 4,1 0,-2 -4,-2 4,-3 -5,-3 0,-3 -4,-1 1,3 -1,1 -5,-5 3,-1 -5,-7 0,-8 2,-2 -2,-1 -4,1 -1,-1 -1,-6 -2,1 -3,-3 -3,3 -1,-3 -1,-1 1,3 -2,3 -5,1 -9,-4 -2,-4"
       id="suntarskij_ulus"
       style="fill:#002c86;fill-opacity:1;stroke:#ffffff;stroke-width:1.62081647;stroke-linecap:round;stroke-linejoin:round;stroke-miterlimit:4;stroke-dasharray:none" />
    <path
       inkscape:connector-curvature="0"
       d="m 7371.3907,2748.4905 -3,-11 1,-3 -2,-2 0,-4 3,-2 -1,-4 -2,-1 -1,-4 -2,0 -1,-4 2,-3 -6,-12 3,-11 -3,-18 2,-5 0,-5 -6,-9 5,-7 25,-8 33,-16 2,1 7,12 8,9 6,10 -2,11 1,9 6,7 -1,6 7,11 6,4 1,4 3,2 3,1 8,7 16,1 11,-4 2,-4 15,3 11,-6 6,3 11,10 29,20 9,9 7,4 3,4 0,13 7,10 -1,7 -4,7 -5,-2 -6,4 0,4 6,7 5,3 1,4 13,-2 0,4 -2,5 -5,4 1,7 -6,6 -2,7 -2,-2 -3,7 -8,1 -1,-3 -2,4 -4,1 -3,-1 -5,4 -19,-13 -8,-13 -13,-8 -8,-2 -2,-5 -8,2 -3,-2 -5,6 -11,-2 -1,4 -9,3 -13,-3 -4,-2 -9,7 1,6 -6,2 -4,-4 -1,-3 -5,-2 -5,-9 -11,-7 -2,-2 1,-5 -2,-3 -7,-4 -4,-3 -2,-4 -4,-1 -4,-6 0,-4 -6,-6 -2,-9 -3,-3 -11,2 -1,-6 -5,-5"
       id="tattinskij_ulus"
       style="fill:#00297e;fill-opacity:1;stroke:#ffffff;stroke-width:1.62081647;stroke-linecap:round;stroke-linejoin:round;stroke-miterlimit:4;stroke-dasharray:none" />
    <path
       inkscape:connector-curvature="0"
       d="m 7302.3907,2625.4905 -1,-4 -1,-2 6,-20 -3,-16 1,-5 -2,-3 -3,-2 -5,-1 -2,-5 6,-3 0,-14 5,-10 -2,-9 3,-13 -9,-6 -5,-9 -11,-8 3,-6 3,-1 -1,-3 -1,-3 -1,-3 3,-9 -4,-7 0,-7 -11,-11 -1,-3 -3,-8 0,-7 -4,-7 0,-9 5,-8 0,-9 10,-6 5,-1 7,4 19,-5 1,-4 -1,-12 5,-6 7,-13 9,2 -1,-4 -3,-3 0,-13 3,-12 0,-3 -3,-8 1,-2 -1,-4 3,-3 -1,-10 8,-3 15,-12 1,-6 0,-4 -2,-5 4,-3 10,-3 1,-3 -2,-5 4,-7 -1,-3 9,-7 -1,-8 4,-9 0,-7 4,-2 -1,-3 5,-3 20,-10 5,3 4,-1 6,4 11,-4 8,4 12,-6 9,5 14,-3 9,-6 1,-4 10,3 8,-4 5,-6 9,-1 2,-6 6,-2 9,-13 8,-5 13,-1 7,3 7,0 3,3 10,2 8,-3 7,-9 15,2 2,2 2,7 -3,15 2,1 1,4 11,3 -1,9 -2,6 -5,-2 -6,4 -1,3 3,9 0,8 -4,6 -2,16 2,3 0,2 2,3 0,3 -3,3 3,11 -1,9 3,4 7,3 7,-1 7,8 6,-1 3,2 3,-2 7,3 3,2 2,3 5,-1 3,3 8,1 1,2 6,1 5,-2 5,4 3,-2 6,9 -2,8 -9,13 1,4 8,1 11,-2 4,4 4,-1 8,5 14,-1 9,7 2,3 3,17 -1,7 4,4 0,3 -3,4 1,4 4,12 8,-1 2,3 1,6 3,3 1,6 6,8 -8,0 -15,11 0,4 -7,17 0,8 -7,11 2,6 0,10 5,6 0,4 1,3 6,7 -1,5 2,4 2,2 6,-3 2,1 -2,6 1,14 2,2 9,-3 5,6 5,3 -5,15 4,4 9,5 1,3 -16,18 -14,4 -15,-3 -4,-4 -4,1 -14,27 -2,25 -2,2 -9,8 -2,0 -5,6 -5,-3 -14,7 5,11 3,3 2,5 3,3 3,-2 4,2 1,2 1,8 7,20 -10,3 1,3 3,8 -3,6 0,10 -9,1 -4,5 -5,2 -10,-1 -3,3 0,4 -5,6 -14,3 -2,4 -3,1 -11,-2 -4,-4 -7,-4 -8,1 -1,4 -9,4 -5,14 -6,8 1,7 3,5 0,5 -13,2 -1,-4 -5,-3 -6,-7 0,-4 6,-4 5,2 4,-7 1,-7 -7,-10 0,-13 -3,-4 -7,-4 -9,-9 -29,-20 -11,-10 -9,-3 -8,6 -15,-3 -5,5 -11,3 -13,-1 -14,-10 -1,-4 -8,-6 -5,-9 1,-6 -6,-7 -1,-11 2,-9 -6,-10 -8,-9 -7,-12 -2,-1 -33,16 -25,8 -5,7 -7,-2 -16,-15 -5,-2 -1,-3 -2,-6 -2,-1 -6,1 -3,-3 -4,0 -3,9 -4,-3"
       id="tomponskij_ulus"
       style="fill:#004ae2;fill-opacity:1;stroke:#ffffff;stroke-width:1.62081647;stroke-linecap:round;stroke-linejoin:round;stroke-miterlimit:4;stroke-dasharray:none" />
    <path
       inkscape:connector-curvature="0"
       d="m 7182.3907,2707.4905 7,-17 5,-1 4,-5 -1,-3 -3,-5 -2,-6 3,-7 36,-6 5,-4 14,-3 10,-8 22,-11 18,-12 1,2 1,4 4,3 3,-9 4,0 3,3 6,-1 2,1 2,6 1,3 5,2 16,15 7,2 6,9 0,5 -2,5 3,18 -3,11 6,12 -2,3 1,4 2,0 1,4 2,1 1,4 -3,2 0,4 2,2 -1,3 3,11 5,5 1,6 -7,6 0,3 1,4 -1,3 -11,7 -1,4 0,15 -3,3 -13,3 -5,5 -14,1 1,3 -4,1 3,4 0,6 -4,1 -17,2 -5,-3 -26,1 -6,5 1,5 -5,3 -14,1 -7,-4 -2,-12 1,-4 3,-6 6,-3 6,-10 -4,-6 4,-2 -10,-5 -14,2 -7,-1 -5,-4 0,-8 -1,-8 -3,-8 -9,-12 1,-2 -1,-2 -2,-5 -4,-4 -1,-8 -2,-5 0,-9 1,2 4,-1 -3,-4 -3,-2 -12,-2 -1,-2"
       id="ust'-aldanskij_ulus"
       style="fill:#002b84;fill-opacity:1;stroke:#ffffff;stroke-width:1.62081647;stroke-linecap:round;stroke-linejoin:round;stroke-miterlimit:4;stroke-dasharray:none" />
    <path
       id="ust'-janskij_ulus"
       d="m 6879.3907,1549.4905 1,-2 3,-1 0,1 -4,2 m 254,-86 -1,0 1,-2 2,1 -2,1 m -83,48 2,0 4,-4 -2,3 -4,1 m 9,-4 1,0 -1,0 m 107,-54 4,0 2,1 -6,0 0,-1 m -75,64 -5,-1 -1,-2 2,-1 -2,-3 11,-14 22,-12 6,0 4,4 2,5 1,0 -2,1 -1,9 -4,7 -7,-2 -1,-1 -3,-2 -4,3 2,7 -14,-1 -1,1 5,2 -4,3 -3,0 0,-1 -3,-2 m 41,-19 -1,0 2,-2 -1,2 m -1,-5 0,1 0,-1 m -20,19 1,-3 1,2 1,-2 0,3 -3,0 m 242,-316 1,9 4,20 0,24 -2,2 -3,-2 -6,-1 -1,5 -6,1 2,5 6,0 1,5 -3,-1 1,3 -7,0 3,3 -3,4 -4,3 -4,-1 -3,7 3,1 1,7 -8,5 -1,7 8,4 -4,6 3,2 -2,4 2,22 1,7 -5,15 -4,3 0,9 2,3 -2,3 0,2 4,1 2,7 2,4 1,5 2,3 2,2 -1,5 2,2 2,9 8,5 7,6 1,2 1,3 -6,10 1,11 -4,8 2,3 -2,2 -4,9 1,3 -3,5 1,3 -1,7 -3,6 5,7 6,2 -8,74 1,6 -2,5 6,3 1,2 6,5 2,0 5,3 11,-7 4,1 7,6 6,-1 9,2 9,-9 3,1 12,-8 12,7 -4,10 2,1 1,4 -1,3 1,4 8,0 3,3 8,-1 5,3 3,4 10,1 8,7 3,6 6,5 -1,2 2,4 -2,2 -7,-1 -3,5 -3,-1 -4,3 -10,8 -2,-1 -3,3 -7,1 -8,16 1,3 2,1 0,4 3,1 2,3 2,1 1,1 3,1 2,5 9,9 4,5 12,10 3,1 1,2 -13,16 6,12 0,6 -4,5 2,4 -3,3 1,3 -3,4 1,3 3,2 -5,3 -3,5 1,5 5,4 4,1 2,4 4,2 2,3 5,1 2,5 0,12 4,6 7,7 3,9 3,3 17,4 -15,1 -9,7 -8,-1 -5,7 -3,-2 -4,2 -7,-1 0,7 -17,4 0,15 -7,10 0,8 -3,3 2,4 -11,22 -6,4 -4,-2 -2,3 -14,3 -18,-10 0,-6 1,-8 4,-3 2,-6 -8,-16 -20,-12 -8,-9 -1,-4 2,-6 9,-8 -24,-18 -3,3 -2,-1 -6,6 -6,-4 -10,-4 -5,-5 0,-8 -4,-1 -4,-7 0,-7 -9,1 0,-7 -4,-6 -5,-2 -6,-8 -3,2 -6,-1 -2,-3 -3,0 -6,-6 -5,1 -4,-4 -1,5 -5,5 1,4 -2,5 -15,-1 -6,5 -5,-2 1,-5 -4,-3 -2,-4 -13,4 -4,-9 0,-7 -4,-3 -7,-8 -1,-3 7,-12 -2,-2 -1,2 -5,-3 -3,-6 -6,-3 -2,-3 -2,-4 -2,-11 -4,-7 -14,7 -3,-2 -4,4 -12,3 -9,18 -6,5 -5,-1 -11,7 -2,9 -18,-7 -8,-10 -9,-1 -9,-4 -4,0 0,5 -3,9 2,4 -20,20 -6,17 -22,-7 -1,-5 -4,-5 -11,-1 -1,-2 10,-9 0,-2 -8,-1 -3,-4 3,-11 -3,-4 0,-2 -4,-2 -4,-6 1,-4 -5,-4 -3,-1 -38,17 -8,0 -3,-1 -4,-6 -1,-5 -4,-5 -1,-4 2,-6 -1,-5 -9,-12 -3,-2 -3,-5 -3,-10 3,-10 -2,-4 -12,-10 0,-2 -5,2 -1,-3 -7,1 -3,-4 3,-6 3,-2 -6,0 3,-10 2,-2 5,0 -5,-3 -2,2 -2,-3 0,-8 -8,-40 -1,-14 1,-26 4,-13 8,-4 4,-5 1,-1 6,-1 2,2 5,2 3,2 3,3 -7,-5 -10,-3 -3,1 -4,5 -2,1 1,2 3,0 -2,1 2,2 -6,-1 3,7 3,4 -1,2 1,5 5,4 7,-1 17,13 12,6 19,4 27,-2 13,-4 10,-10 8,1 1,-1 -7,-3 0,-2 -1,-1 5,-13 14,-16 9,-14 11,-8 18,-4 6,3 4,-3 -1,-1 -3,2 4,-5 14,0 -5,7 0,2 2,2 0,1 1,2 0,-6 3,-3 8,-3 3,1 0,2 3,4 5,-1 6,4 7,-4 6,1 5,-5 4,-1 1,1 0,2 -2,-2 -4,3 2,2 0,3 2,0 -1,-3 6,-1 1,1 -2,3 3,1 -3,1 0,1 1,0 0,3 2,2 2,-1 0,1 2,0 1,1 2,-2 -1,-4 3,-2 0,4 5,1 0,-3 3,-3 6,-2 -1,2 -3,2 -1,-2 -2,2 4,3 5,0 2,-2 2,-5 5,-1 1,-7 -3,0 0,3 -12,2 -1,-1 6,-7 -5,0 -1,1 1,2 -4,1 0,-3 -6,2 1,-2 -1,-1 -1,3 -3,-2 4,-2 0,-6 -1,-3 1,-1 1,-5 -3,-9 -1,-1 -2,-2 -1,-4 8,-2 6,-9 8,-2 4,-5 -1,-2 1,-3 -10,8 -7,0 -1,-2 3,-2 1,-5 6,-2 0,-3 5,1 4,-11 -6,-1 -5,2 -7,1 2,-2 3,1 2,-2 -2,1 -1,-4 -1,-1 -5,5 0,-1 -1,-2 -2,0 -5,6 -4,0 1,-9 10,1 6,-5 9,-1 1,2 3,1 -9,1 -2,3 4,-1 13,2 -4,5 1,8 -4,5 4,0 3,-8 5,4 1,1 0,2 1,0 -10,2 -1,2 7,0 1,1 3,-1 2,2 6,-2 1,3 2,1 4,6 6,7 -2,1 5,2 7,-7 -3,-9 11,-4 6,1 3,-3 0,-4 -1,-2 8,1 -8,-5 0,-2 -3,-3 -5,-1 0,-1 -6,-5 -2,-3 -2,-1 -5,-11 -2,-2 -2,-5 2,-4 -5,0 -4,-4 -2,-1 -17,3 11,-3 3,-4 1,-1 -2,-1 2,-2 -4,-4 -1,-4 3,-10 -2,-6 0,-4 6,-2 0,3 4,-1 5,-9 -1,-1 -6,-2 -5,2 -5,-5 -1,1 -2,7 -13,7 -4,14 -1,1 -6,-1 -5,1 -6,-8 1,-8 0,-1 -1,-1 0,-6 -1,1 8,-7 -3,0 0,-2 -3,1 -1,-4 4,-12 11,-10 12,-2 7,-4 -2,-1 -2,-1 0,-2 2,3 3,1 0,1 9,-3 11,-15 3,0 -1,-2 0,-3 -1,-1 2,-1 -2,-2 13,-9 -6,1 1,-1 -3,-1 -1,-1 0,-2 -3,-2 -6,0 -1,-2 -3,1 -3,-3 -3,0 -5,-4 -4,1 -1,-4 -2,0 -2,-2 -2,-2 1,-2 27,-9 16,3 19,-3 66,-32 16,-4 18,-9 34,-10 m -140,259 -1,2 -2,-2 1,0 2,0 m -89,63 1,-1 0,1 -1,0 m 0,6 1,0 1,0 -1,4 -1,-4 m 15,-4 2,-1 1,1 -5,0 2,0 m -3,5 0,-1 1,1 -1,0"
       inkscape:connector-curvature="0"
       style="fill:#0049de;fill-opacity:1;stroke:#ffffff;stroke-width:1.62081647;stroke-linecap:round;stroke-linejoin:round;stroke-miterlimit:4;stroke-dasharray:none" />
    <path
       inkscape:connector-curvature="0"
       d="m 7494.3907,3179.4905 -3,-6 1,-3 -1,-6 -9,-15 0,-5 -3,-7 -3,-12 0,-2 5,-1 3,-3 3,1 2,3 3,2 0,-10 -3,-5 2,-1 2,-6 -2,-3 1,-3 -2,-10 -1,-3 -1,-5 -7,-6 4,-8 3,-2 3,-6 -3,-9 -4,-20 4,-6 -2,-8 3,-4 15,0 5,-3 4,-11 3,-2 4,-8 1,-5 -3,-3 -7,-18 -10,-13 -4,-9 -8,-20 0,-5 7,-2 5,-6 6,-2 18,-17 13,-4 13,-8 4,1 1,-6 3,-1 2,-6 4,-3 3,-4 -1,-3 5,-4 3,1 4,-1 2,-4 1,3 8,-1 3,-7 2,2 2,-7 6,-6 -1,-7 5,-4 2,-5 0,-9 -3,-5 -1,-7 6,-8 5,-14 5,-2 5,-6 4,-1 11,4 4,4 11,2 3,-1 2,-4 14,-3 5,-6 0,-4 3,-3 10,1 5,-2 4,-5 9,-1 0,-10 3,-6 -3,-8 -1,-3 10,-3 -7,-20 -1,-8 -1,-2 -4,-2 -3,2 -3,-3 -2,-5 -3,-3 -5,-11 14,-7 5,3 5,-6 2,0 9,-8 2,-2 2,-25 14,-27 4,-1 4,4 15,3 14,-4 16,-18 -1,-3 -9,-5 -4,-4 3,-13 2,-3 2,2 1,3 2,-1 0,-6 12,-10 6,1 1,3 5,-1 3,5 17,4 2,2 1,3 8,8 -8,3 0,3 1,3 -2,2 1,3 -1,2 2,2 1,4 1,1 1,5 5,2 -1,2 1,2 2,0 0,3 4,7 -2,4 0,4 2,0 2,2 -4,6 0,8 -6,0 -2,3 1,6 6,8 2,9 -2,17 3,8 -2,2 -1,-3 -3,1 4,14 0,13 -2,3 -5,-2 -3,3 2,2 -3,7 -5,2 -2,3 -7,2 1,4 2,1 1,4 -1,0 1,3 -2,5 -7,1 -4,6 -4,-2 -2,10 4,4 0,2 5,1 -3,2 -2,9 -4,4 -2,8 -4,0 2,6 3,1 1,4 2,3 -3,7 1,4 2,2 0,9 4,2 3,0 1,4 3,1 3,4 4,-1 5,2 0,5 2,2 1,4 -3,4 2,2 0,3 3,0 2,10 -3,3 7,5 0,2 3,1 0,4 1,1 2,5 1,0 -4,9 2,2 1,8 5,2 0,3 1,1 2,6 5,2 1,5 3,9 3,0 2,3 -3,5 3,6 2,5 3,1 5,7 0,3 4,1 -2,5 2,5 -7,5 -3,-1 -3,-5 0,-8 -5,-3 -1,-3 -2,-2 -2,4 2,5 -3,2 0,4 -6,0 -11,7 -2,4 1,4 -2,4 1,3 -2,3 4,5 0,2 2,0 3,3 -2,4 -6,2 -1,8 -3,4 0,6 -6,1 -2,5 -3,0 -8,11 0,9 -7,1 -6,-2 -2,3 -9,0 -2,3 -3,0 -4,-3 -3,1 -1,3 -10,3 -3,-3 -6,-1 -2,3 -6,-3 -1,-2 -4,0 -6,7 -2,0 -7,14 -1,7 0,5 -2,5 2,3 -1,6 1,4 -2,3 5,3 -3,4 3,5 -2,1 0,5 -18,-1 -4,7 -7,1 -3,-2 0,-2 -2,-2 -1,-2 -3,5 -6,2 -1,3 0,7 -5,-2 -3,1 -1,-2 0,-1 -2,-1 -12,4 -1,-2 -5,2 -3,-2 -3,0 -10,5 -6,8 -7,3 -5,-2 -3,-5 -6,0 -5,8 1,4 -2,0 -2,4 -8,2 2,5 -4,0 -2,3 -3,10 1,3 -1,3 -7,1 0,4 3,2 0,4 -3,5 8,1 0,7 1,9 -4,1 -4,-2 -1,4 -3,2 1,5 -1,2 -4,-5 -2,-7 -3,1 -1,2 2,11 -9,6 -3,0 -4,-5 -3,-12 0,-4 -1,-2 -8,0 -2,-7 -3,-4 -5,0 -8,-4 -6,1 0,4 -3,2 -6,0 -1,-6 -7,-3 -3,-10 -4,-4 -1,-5 -6,-2 -5,-7"
       id="ust'-majskij_ulus"
       style="fill:#0759ff;fill-opacity:1;stroke:#ffffff;stroke-width:1.62081647;stroke-linecap:round;stroke-linejoin:round;stroke-miterlimit:4;stroke-dasharray:none" />
    <path
       inkscape:connector-curvature="0"
       d="m 7935.3907,1912.4905 -3,-5 -1,-11 -3,-2 3,-7 -2,-5 -7,-5 -7,-9 -3,-6 1,-4 10,-31 4,-3 3,-8 7,-9 13,-12 -1,-5 -4,-3 -8,-3 -9,-11 -1,5 -2,3 -4,-3 -3,-12 -6,-5 -1,-10 -4,-3 -1,-7 -5,-2 -8,0 -7,8 -3,-3 -4,-10 -13,1 -4,-17 -8,-7 -7,-1 -2,-4 6,-4 8,0 12,-12 7,-3 1,-9 5,-1 4,-9 4,-1 4,1 6,8 7,1 0,3 2,1 16,-5 14,6 8,-5 9,-13 3,2 1,-2 2,2 4,-1 7,6 5,1 1,2 1,0 0,2 3,-1 0,4 3,-2 4,3 2,-3 3,4 4,-4 4,-1 3,3 1,-3 7,1 2,-3 1,3 4,0 4,3 3,-1 3,2 3,-1 2,3 55,0 39,24 8,0 2,4 12,-4 2,2 7,-3 6,1 2,2 6,-1 2,3 1,3 4,4 2,-3 5,-3 3,0 2,-3 8,-4 7,4 10,-2 13,1 7,-1 4,1 1,4 3,1 1,2 2,1 4,0 5,7 -2,2 -2,6 3,9 4,0 5,3 -1,6 1,2 3,1 2,7 3,4 3,9 3,2 5,-1 6,4 0,9 -4,1 0,4 -6,11 2,8 -3,-2 -5,8 -3,0 0,5 -3,5 -3,-1 -1,1 0,2 2,2 1,2 -2,3 8,14 -1,6 2,0 0,3 -1,3 6,5 0,3 10,7 2,2 3,-2 8,1 4,2 1,-1 6,4 0,13 -4,5 1,4 -1,5 -5,9 0,3 8,2 0,2 4,2 0,3 3,1 -4,4 1,2 -4,2 0,4 -5,3 -3,-1 0,-2 -6,-3 0,-1 -3,-2 -8,0 -18,24 0,1 2,3 -1,2 2,8 -4,-3 -3,1 -1,5 -6,2 -5,5 -1,4 -10,7 -8,3 0,7 7,1 2,2 0,5 4,2 1,2 -5,5 -12,0 -9,6 -1,-1 -2,-3 -1,-1 -7,2 -4,-4 -1,0 -3,-2 -1,0 0,-6 -2,-2 1,-5 -1,0 0,-2 -1,-3 -10,2 -4,-5 -2,0 -5,1 -4,6 0,4 -4,11 2,5 -1,2 1,3 -8,3 -1,2 4,3 -5,4 -4,1 -3,-2 0,-2 -2,0 -12,7 -2,5 -7,6 -11,0 -2,-3 -3,0 0,-2 -3,-1 -10,4 -10,0 -2,-2 0,-12 -4,-3 2,-2 -4,-1 -7,-9 1,-3 5,-2 -2,-4 -5,-4 -2,-5 5,-8 7,-2 2,-7 -5,-5 1,-6 -3,-2 -1,-2 3,-5 -10,-4 -4,-6 -7,-5 -6,5 -6,-3 0,-4 -1,-4 -14,-9 -2,-4 -8,0 -4,4 -3,-1 -5,-9 -21,3 -15,-8 -10,2 -8,-3 -16,-6 -5,-5 -8,-3"
       id="verkhnekolymskij_ulus"
       style="fill:#216aff;fill-opacity:1;stroke:#ffffff;stroke-width:1.62081647;stroke-linecap:round;stroke-linejoin:round;stroke-miterlimit:4;stroke-dasharray:none" />
    <path
       inkscape:connector-curvature="0"
       d="m 6400.3907,2610.4905 0,-3 2,-4 -2,-4 -3,-3 0,-6 4,-5 -1,-3 5,-8 6,-6 -3,-9 -16,-8 -4,-5 -1,-4 2,-5 -1,-2 5,-5 -1,-3 0,-1 4,0 -1,-3 3,-3 1,4 3,-4 3,0 3,-6 8,-3 7,3 2,3 7,1 0,-1 -4,-4 3,-3 3,2 0,4 2,1 3,0 5,3 4,1 -2,3 7,2 2,1 1,3 6,-1 -4,4 1,3 3,3 3,2 2,-3 2,3 2,-1 15,4 2,2 2,9 -3,5 3,8 4,7 -3,3 0,5 -7,7 0,7 -1,12 -2,2 0,6 1,5 3,2 0,2 -7,1 -1,2 0,3 -2,0 2,3 7,6 5,1 -3,5 3,-1 3,4 -2,1 0,2 4,3 -3,2 2,4 5,1 0,3 3,-1 0,5 1,3 -1,1 1,8 9,4 2,2 -1,1 6,-2 5,3 0,-3 3,2 2,-3 4,1 4,2 1,2 -1,3 1,3 6,5 -2,4 3,8 -4,1 6,3 0,3 -3,0 0,3 4,3 -3,5 0,2 10,8 -5,2 4,1 2,2 4,1 -2,1 1,1 4,1 -3,2 11,0 5,4 4,-1 -1,1 0,1 3,1 3,0 2,-2 5,1 -5,5 1,5 4,0 -2,2 2,1 -2,3 3,0 -1,2 2,1 -1,2 4,-1 0,3 3,0 0,2 2,0 0,2 -3,0 4,2 0,2 0,1 4,-1 1,3 4,-3 3,4 1,-2 2,3 5,0 3,-2 -2,-3 2,0 1,3 1,0 1,-5 -1,-1 1,-1 3,-2 0,3 2,0 0,-2 -1,-1 0,-3 5,-2 6,-7 -1,-2 8,1 2,-3 3,2 0,2 -3,1 0,7 4,1 -1,1 3,7 -1,2 3,2 -1,3 4,0 1,1 4,3 0,3 2,6 3,5 -1,10 1,4 3,8 5,0 0,1 -21,2 -5,6 1,7 -1,2 5,0 4,5 0,2 3,1 -1,1 1,3 2,0 1,2 4,-1 7,5 3,1 2,-2 4,3 1,-2 5,2 0,-2 6,1 1,3 2,1 -1,3 3,2 1,2 1,-2 9,5 1,-2 1,2 6,4 1,2 2,1 0,5 3,3 -2,3 -2,0 2,2 -2,1 2,0 1,5 -2,1 1,2 -2,4 1,1 -2,2 3,2 -1,4 2,1 0,4 2,-1 -1,2 2,1 -2,1 2,1 -2,1 2,2 0,3 7,2 3,-1 6,3 1,1 -1,2 6,2 -1,2 2,10 0,3 4,9 0,3 5,6 1,14 10,14 2,5 8,5 3,4 7,2 12,-2 2,2 2,13 3,4 15,1 7,11 -3,5 -2,8 2,4 5,-2 2,3 0,5 -12,5 -3,10 -9,8 -17,-1 -35,13 -2,-2 1,-4 -14,-1 -4,-1 -4,-5 -11,-2 -17,11 -5,1 -5,-2 -24,6 -3,-9 -1,-8 3,-18 4,-12 -2,-6 -18,-22 -28,-10 0,-7 -5,-5 -5,3 -12,-4 -3,-4 -7,1 -9,-17 1,-5 -1,-3 -7,-7 0,-4 3,-4 -1,-3 -1,-3 -6,-4 0,-4 -2,-5 -5,0 -1,-5 -2,-3 -5,-2 -3,-6 -1,-8 5,-5 0,-5 6,-6 3,-14 5,-8 -3,-4 3,-1 -12,-10 -4,-7 1,-15 3,0 -2,-4 -4,-6 -8,-4 -15,-16 -4,0 -2,-3 0,-2 -1,-4 -3,1 -6,-5 -1,-3 1,-2 -8,-6 -4,-8 0,-4 3,-1 -6,-8 0,-2 -1,-6 -5,-1 -1,-6 3,-1 -2,-8 2,-2 -5,-4 3,-2 0,-5 -5,-4 1,-3 -3,-5 1,-10 -2,-1 0,-3 -3,-3 0,-3 -3,-2 0,-8 -3,-3 -1,-6 -2,-3 -20,-9 2,-3 -2,0 -1,-6 -3,-2 0,-4 -5,-4 2,-4 -5,-4 2,-1 -1,-1 0,-1 -11,-4 3,-9 -2,-1 0,-2 0,-1 -1,0 -1,-3 -1,2 -3,-3 3,-4 -7,-5 -3,0 1,-2 -6,-1 0,-2 -3,-2 3,-1 -3,-1 2,-3 -2,0 0,-2 0,-2 -2,2 -4,0 -1,2 -14,6 2,-3 -4,-4"
       id="verkhneviljujskij_ulus"
       style="fill:#002164;fill-opacity:1;stroke:#ffffff;stroke-width:1.62081647;stroke-linecap:round;stroke-linejoin:round;stroke-miterlimit:4;stroke-dasharray:none" />
    <path
       inkscape:connector-curvature="0"
       d="m 7019.3907,2295.4905 -3,-10 -4,-14 -4,-9 7,-1 1,-6 5,-6 0,-3 -7,-9 0,-9 6,-12 1,3 2,1 7,-9 15,0 0,-4 5,-4 2,-6 -3,-5 1,-3 -2,-7 -3,-1 -1,-2 3,-3 -1,-4 -3,-2 1,-10 4,-9 -4,-16 1,-4 3,0 5,4 11,0 -2,-4 -3,-14 8,-10 1,-5 3,-4 7,2 4,4 3,-4 -4,-6 2,-1 -2,-6 2,-6 4,-2 0,-8 3,-6 -1,-24 1,-6 -1,-5 5,-5 1,-4 -2,-6 7,-8 4,-10 -1,-3 -3,-2 -8,1 8,-15 -7,0 -12,-5 -11,-1 -3,-6 -5,-5 -11,-4 -8,-5 -12,-13 -4,-2 -8,1 -7,-4 -2,-5 -1,-2 4,-3 3,-7 1,-8 -4,-5 1,-3 -2,-5 3,-4 0,-5 -3,-2 1,-9 -2,-5 -1,-9 -2,-3 4,-4 1,-9 3,0 1,-15 8,-4 1,-4 4,-2 -1,-5 6,-17 20,-20 -2,-4 3,-9 0,-5 4,0 9,4 9,1 8,10 18,7 2,-9 11,-7 5,1 6,-5 9,-18 12,-3 4,-4 3,2 14,-7 4,7 2,11 2,4 2,3 6,3 3,6 5,3 1,-2 2,2 -7,12 1,3 7,8 4,3 0,7 4,9 13,-4 2,4 4,3 -1,5 5,2 6,-5 15,1 2,-5 -1,-4 5,-5 1,-5 4,4 5,-1 6,6 3,0 2,3 6,1 3,-2 6,8 5,2 4,6 0,7 9,-1 0,7 4,7 4,1 0,8 5,5 10,4 6,4 6,-6 2,1 3,-3 22,16 2,2 -9,8 -2,6 1,4 8,9 20,12 8,16 -2,6 -4,3 -1,8 0,6 23,14 5,7 2,5 12,0 1,7 3,3 1,6 -9,8 1,2 3,1 3,3 1,2 6,5 4,-3 12,-3 5,3 6,-4 3,2 5,-3 5,3 1,4 7,4 2,5 3,2 1,3 10,1 9,-3 6,2 3,3 5,1 4,5 8,-2 10,3 3,3 3,8 2,2 2,4 3,1 2,-4 4,-2 4,4 0,3 3,3 -2,6 2,5 -11,1 -3,-2 -9,3 2,3 -2,3 2,6 -11,11 -1,4 2,3 3,2 11,4 0,3 4,5 8,2 7,-1 2,2 3,10 0,4 9,3 -7,9 -8,3 -10,-2 -3,-3 -7,0 -7,-3 -13,1 -8,5 -9,13 -6,2 -2,6 -9,1 -5,6 -8,4 -10,-3 -1,4 -9,6 -14,3 -9,-5 -12,6 -8,-4 -11,4 -6,-4 -4,1 -5,-3 -25,13 1,3 -4,2 0,7 -4,9 1,8 -9,7 1,3 -4,7 2,5 -1,3 -10,3 -4,3 2,5 0,4 -1,6 -15,12 -8,3 1,10 -3,3 1,4 -1,2 3,8 0,3 -3,12 0,13 3,3 1,4 -9,-2 -7,13 -5,6 1,12 -1,4 -19,5 -7,-4 -15,7 0,9 -5,8 0,9 4,7 0,7 4,11 11,11 0,7 4,7 -3,9 1,3 1,3 1,3 -3,1 -3,6 -7,-3 0,-4 -9,10 -11,-2 -2,-7 1,-6 -3,-7 -7,-5 -5,-9 -6,-3 -3,-3 -13,-18 -6,-4 -3,-4 -9,-3 -4,-5 -4,4 -3,1 -5,-3 -2,-4 -4,-4 -4,0 -1,-2 -4,-4 2,-18 -3,-12 0,-8 -17,10 -4,-8 -4,-5 -5,3 -2,-3 -11,-7 -1,-6 -18,2 -13,-6 -10,-2 -13,-14 -11,3 -5,4 -13,-24 -2,-3 2,-3 -3,-8 -9,-4 -6,-6"
       id="verkhojanskij_ulus"
       style="fill:#003092;fill-opacity:1;stroke:#ffffff;stroke-width:1.62081647;stroke-linecap:round;stroke-linejoin:round;stroke-miterlimit:4;stroke-dasharray:none" />
    <path
       inkscape:connector-curvature="0"
       d="m 6423.3907,2514.4905 1,-5 11,-10 2,-9 -1,-3 4,-6 -6,-3 -7,-9 0,-4 -6,-9 -3,-7 15,-1 27,3 11,9 3,0 3,4 3,0 5,4 3,6 3,3 5,2 2,4 0,4 6,4 3,-3 5,10 3,4 0,3 7,2 1,6 8,10 -4,4 2,8 3,5 2,6 7,10 0,6 0,5 -2,11 3,3 2,8 3,4 13,3 6,5 8,0 9,4 3,3 1,4 5,6 1,6 3,2 6,2 1,2 -1,4 3,4 21,1 21,11 23,6 15,0 11,-3 3,6 4,3 12,6 3,-2 0,-5 3,-3 3,0 14,9 12,3 11,-7 19,0 1,-4 10,-6 -1,-9 -1,-4 2,-6 18,-15 3,-1 16,9 6,8 5,10 3,3 21,9 1,6 -10,29 -20,26 -8,24 -9,2 -5,8 -7,4 -3,7 0,10 1,11 -5,5 0,4 3,5 0,2 4,7 -2,1 2,3 1,6 4,3 0,6 14,0 3,3 4,0 2,3 0,3 2,4 2,4 13,2 52,3 6,-2 10,2 41,-10 -7,13 2,5 -1,4 0,6 4,10 1,5 4,3 -4,9 -12,2 -13,-1 -6,2 -7,6 4,4 -8,11 -1,7 -12,10 -8,-3 -10,0 -7,-3 -26,2 -4,1 0,4 -10,7 -7,0 -14,6 -2,11 -9,6 -2,5 -4,2 -9,-4 -7,5 -4,28 -9,5 -4,-7 -1,-14 -5,-6 0,-3 -4,-9 0,-3 -2,-10 1,-2 -6,-2 1,-2 -1,-1 -16,-5 0,-2 -2,-2 2,-1 -2,-1 2,-1 -2,-1 1,-2 -2,1 0,-4 -2,-1 1,-4 -3,-2 2,-2 -1,-1 2,-4 -1,-2 2,-1 -1,-5 -2,0 2,-1 -2,-2 2,0 2,-3 -3,-3 0,-5 -2,-1 -1,-2 -6,-4 -1,-2 -1,2 -9,-5 -1,2 -1,-2 -3,-2 1,-3 -2,-1 -1,-3 -6,-1 0,2 -5,-2 -1,2 -4,-3 -2,2 -3,-1 -7,-5 -4,1 -1,-2 -2,0 -1,-3 1,-1 -3,-1 0,-2 -4,-5 -5,0 1,-2 -1,-7 5,-6 21,-2 0,-1 -5,0 -3,-8 -1,-4 1,-10 -3,-5 -2,-6 0,-3 -4,-3 -1,-1 -4,0 1,-3 -3,-2 1,-2 -3,-7 1,-1 -4,-1 0,-7 3,-1 0,-2 -3,-2 -2,3 -8,-1 1,2 -6,7 -5,2 0,3 1,1 0,2 -2,0 0,-3 -3,2 -1,1 1,1 -1,5 -1,0 -1,-3 -2,0 2,3 -3,2 -5,0 -2,-3 -1,2 -3,-4 -5,3 0,-3 -4,1 0,-1 0,-2 -4,-2 3,0 0,-2 -2,0 0,-2 -3,0 0,-3 -4,1 1,-2 -2,-1 1,-2 -3,0 2,-3 -2,-1 2,-2 -4,0 -1,-5 5,-5 -5,-1 -2,2 -3,0 -3,-1 0,-1 1,-1 -4,1 -5,-4 -11,0 3,-2 -4,-1 -1,-1 2,-1 -4,-1 -2,-2 -4,-1 5,-2 -10,-8 0,-2 3,-5 -4,-3 0,-3 3,0 0,-3 -6,-3 4,-1 -3,-8 2,-4 -6,-5 -1,-3 1,-3 -1,-2 -4,-2 -4,-1 -2,3 -3,-2 0,3 -5,-3 -6,2 1,-1 -2,-2 -7,-3 -2,-1 -1,-8 1,-1 -1,-3 0,-5 -3,1 0,-3 -5,-1 -2,-4 3,-2 -4,-3 0,-2 2,-1 -3,-4 -3,1 3,-5 -5,-1 -7,-6 -2,-3 2,0 0,-3 1,-2 7,-1 0,-2 -3,-2 -1,-5 0,-6 2,-2 1,-12 0,-7 7,-7 0,-5 3,-3 -4,-7 -3,-8 3,-5 -2,-9 -2,-2 -9,-3 -8,0 -2,-3 -2,3 -3,-2 -3,-3 -1,-3 4,-4 -6,1 -1,-3 -2,-1 -7,-2 2,-3 -4,-1 -5,-3 -3,0 -2,-1 0,-4 -3,-2 -3,3 4,4 0,1 -7,-1 -2,-3"
       id="viljujskij_ulus"
       style="fill:#002b84;fill-opacity:1;stroke:#ffffff;stroke-width:1.62081647;stroke-linecap:round;stroke-linejoin:round;stroke-miterlimit:4;stroke-dasharray:none" />
    <path
       inkscape:connector-curvature="0"
       d="m 6322.3907,2430.4905 -1,-5 3,-6 17,-10 7,-10 0,-3 -2,-2 -32,-21 1,-7 -1,-2 20,-13 3,2 9,-1 3,-6 6,-1 1,-7 3,-3 -1,-3 5,-2 0,-3 -11,-13 -3,-6 1,-4 6,-3 1,-4 4,0 1,-4 4,1 2,-3 13,-3 1,-3 3,2 8,-5 8,3 3,-2 0,-3 3,-6 0,-3 -2,-10 -3,-4 -5,-5 0,-5 10,-1 0,-4 -2,-5 -1,-3 2,-6 5,-1 0,2 4,0 8,-7 10,-1 0,-5 -3,-6 1,-8 -2,-7 -9,-7 -8,1 -5,-13 -1,-3 -4,-5 -7,-4 -26,-5 -5,-3 -5,-7 0,-6 9,-23 4,-1 15,5 8,-9 4,-3 1,-3 9,-3 0,-3 6,-5 0,-3 13,-4 4,-5 3,0 3,-2 -2,-4 1,-1 -2,-5 2,-3 10,-1 6,2 5,5 10,7 5,13 8,10 11,2 3,2 1,3 4,-2 5,1 9,-5 2,1 2,-3 8,-2 8,3 1,-2 4,0 1,-2 -2,-4 1,-2 5,7 17,0 14,11 6,0 4,6 8,-2 1,-1 -1,-3 2,-2 1,3 0,2 2,1 1,-6 3,5 11,-2 -3,-1 4,-4 -4,-3 8,-6 -1,-4 3,0 -1,-2 1,-2 4,2 1,-3 4,1 -1,-4 4,-2 -1,-3 1,-3 -4,0 -1,-2 4,0 -3,-7 -2,-2 3,-2 -2,-3 1,-1 10,2 0,1 13,6 1,4 6,-2 3,1 1,3 7,1 2,-2 0,3 7,0 0,3 1,1 3,-3 0,2 2,3 4,-1 1,1 3,1 2,-2 8,4 2,3 5,-7 7,3 -4,-6 7,3 2,-4 2,3 4,-2 3,5 2,0 6,-5 3,4 4,-4 12,6 4,6 19,2 3,12 -1,4 2,2 2,6 -4,3 -5,-2 -3,5 2,3 -1,1 -11,1 -2,5 3,3 -1,4 2,4 7,9 7,4 -1,5 3,3 -2,3 3,3 4,11 1,7 -2,5 1,3 5,2 7,13 2,1 12,3 19,-4 5,4 5,0 1,3 -2,7 2,2 0,7 4,2 2,6 5,5 -1,3 7,13 2,8 -7,8 0,3 8,5 -4,5 2,3 5,2 1,3 0,4 -6,7 0,6 2,4 6,6 11,15 3,2 -5,8 -1,4 1,5 -1,9 -4,6 2,10 6,14 0,5 5,6 8,-3 4,7 7,2 1,-7 3,0 8,4 6,0 1,2 1,5 -9,6 4,21 0,2 -5,0 -5,-3 -2,0 -2,3 1,3 -1,5 2,7 1,8 2,6 -8,9 -5,-1 -8,4 0,7 -2,3 1,7 -5,5 -14,2 -7,5 -9,12 1,6 -16,7 -8,-1 -4,3 2,4 -7,7 -2,13 1,7 0,12 -2,3 -2,10 -5,9 -21,16 -2,6 1,4 1,9 -10,6 -1,4 -19,0 -11,7 -12,-3 -14,-9 -3,0 -3,3 0,5 -3,2 -12,-6 -4,-3 -3,-6 -11,3 -15,0 -23,-6 -21,-11 -21,-1 -3,-4 1,-4 -1,-2 -6,-2 -3,-2 -1,-6 -5,-6 -1,-4 -3,-3 -9,-4 -8,0 -6,-5 -13,-3 -3,-4 -2,-8 -3,-3 2,-11 0,-5 0,-6 -7,-10 -2,-6 -3,-5 -2,-8 4,-4 -8,-10 -1,-6 -7,-2 0,-3 -3,-4 -5,-10 -3,3 -6,-4 0,-4 -2,-4 -5,-2 -3,-3 -3,-6 -5,-4 -3,0 -3,-4 -3,0 -11,-9 -27,-3 -15,1 -5,-5 -3,-4 -27,-2 -6,3 -19,-10 -18,13 -5,-1 -3,-1 0,-6 -7,-2 -3,-4"
       id="zhiganskij_ulus"
       style="fill:#0037a8;fill-opacity:1;stroke:#ffffff;stroke-width:1.62081647;stroke-linecap:round;stroke-linejoin:round;stroke-miterlimit:4;stroke-dasharray:none" />
  </g>
</svg>
